<?xml version="1.0" encoding="UTF-8"?>
<svg version="1.1" xmlns="http://www.w3.org/2000/svg" width="512" height="512">
<path d="M0 0 C3.8905732 2.22865512 5.96620368 4.13848375 7.75 8.375 C8.89447126 19.07351982 6.4420721 29.24513463 4.15527344 39.60620117 C3.76553987 41.41903319 3.37698709 43.23211939 2.98950958 45.04543495 C1.93323065 49.9722984 0.86050465 54.89545079 -0.21512127 59.81812119 C-1.3610855 65.0768848 -2.49142983 70.33900578 -3.62359619 75.60075378 C-5.81073331 85.75397068 -8.01164208 95.90415156 -10.21756673 106.05330127 C-12.75262715 117.71908088 -15.27462155 129.38767149 -17.79528236 141.05656958 C-19.05765502 146.90038151 -20.32048753 152.74409403 -21.58349609 158.58776855 C-21.83314401 159.74284212 -22.08279192 160.89791568 -22.34000492 162.08799148 C-24.1052602 170.25389074 -25.8735144 178.41913731 -27.64306641 186.58410645 C-33.22052622 212.3226212 -38.764625 238.06774257 -44.2425766 263.82762337 C-45.24534362 268.54260446 -46.25019572 273.25713928 -47.25567627 277.97154236 C-47.41561734 278.72154257 -47.57555842 279.47154278 -47.74034619 280.24427027 C-48.368791 283.19112957 -48.9972687 286.13798185 -49.62589693 289.08480203 C-51.39742115 297.38973524 -53.16276501 305.69592335 -54.91812491 314.00428849 C-56.1166732 319.6734432 -57.32746954 325.33993544 -58.54308319 331.00545692 C-59.02664937 333.26910995 -59.50607909 335.53365148 -59.98090363 337.79915428 C-60.61762312 340.83519246 -61.26882623 343.86776453 -61.92382812 346.89990234 C-62.10224369 347.76874652 -62.28065926 348.63759069 -62.46448135 349.53276348 C-63.92838498 356.18963377 -65.82635514 361.48455701 -71.375 365.8125 C-77.30085724 368.6621686 -82.82160498 368.20154165 -88.96484375 366.1105957 C-92.629039 364.63867367 -96.22904314 363.02927653 -99.82122803 361.39050293 C-102.22582452 360.29504049 -104.64043332 359.22517719 -107.05908203 358.16113281 C-114.65260322 354.8124458 -122.21401775 351.39503808 -129.76277161 347.9467926 C-132.94703812 346.49916095 -136.14114005 345.0741997 -139.33743286 343.65335083 C-141.59134269 342.64013027 -143.82800491 341.59408456 -146.06616211 340.54663086 C-147.44694768 339.93031945 -148.82850001 339.31572203 -150.2109375 338.703125 C-151.40509277 338.1555957 -152.59924805 337.60806641 -153.82958984 337.04394531 C-157.76379149 336.27451544 -159.33815613 336.9847041 -162.62823486 339.19238281 C-163.16341736 339.58264648 -163.69859985 339.97291016 -164.25 340.375 C-165.10424561 340.93622559 -165.95849121 341.49745117 -166.83862305 342.07568359 C-167.63824463 342.63594238 -168.43786621 343.19620117 -169.26171875 343.7734375 C-170.17373047 344.41023438 -171.08574219 345.04703125 -172.02539062 345.703125 C-173.46688477 346.71632813 -173.46688477 346.71632813 -174.9375 347.75 C-175.95134766 348.45898438 -176.96519531 349.16796875 -178.00976562 349.8984375 C-181.09180012 352.0545141 -184.17108056 354.21447824 -187.25 356.375 C-188.96465264 357.57579377 -190.67948435 358.77633191 -192.39453125 359.9765625 C-194.82614746 361.67832928 -197.25759953 363.38032507 -199.68823242 365.08349609 C-206.03243568 369.52801558 -212.38946225 373.95389622 -218.75 378.375 C-226.25727661 383.59379665 -233.75894512 388.82043994 -241.25 394.0625 C-242.45946289 394.90844727 -242.45946289 394.90844727 -243.69335938 395.77148438 C-244.45455078 396.30451172 -245.21574219 396.83753906 -246 397.38671875 C-246.71800781 397.88864746 -247.43601563 398.39057617 -248.17578125 398.90771484 C-249.55723476 399.88494361 -250.92976437 400.87491276 -252.29296875 401.87744141 C-257.05288714 405.375 -257.05288714 405.375 -259.25 405.375 C-259.58 406.365 -259.91 407.355 -260.25 408.375 C-265.28230307 412.12726588 -270.12462175 413.06657496 -276.25 412.375 C-282.57785322 410.14164004 -286.01572346 405.83303722 -288.94067383 400.00805664 C-289.45711517 398.7716226 -289.96204291 397.53033388 -290.45703125 396.28515625 C-290.73905899 395.60144958 -291.02108673 394.91774292 -291.31166077 394.21331787 C-292.23881542 391.95874276 -293.15057427 389.69827276 -294.0625 387.4375 C-294.72115843 385.82795565 -295.38084815 384.21883298 -296.04150391 382.61010742 C-297.42537035 379.23529869 -298.80294894 375.85802608 -300.17529297 372.47851562 C-302.16911832 367.56945386 -304.17775667 362.66658338 -306.19140625 357.765625 C-306.84588617 356.17237162 -307.50034577 354.57910988 -308.15478516 352.98583984 C-308.47940735 352.19554382 -308.80402954 351.4052478 -309.13848877 350.59100342 C-310.13054819 348.17398258 -311.12096173 345.75629384 -312.11083984 343.33837891 C-316.73843615 332.03673345 -321.40134316 320.75007714 -326.08383179 309.47106934 C-328.84239412 302.82611105 -331.5981332 296.17998072 -334.35437012 289.53405762 C-335.19190285 287.51505238 -336.02998819 285.49627737 -336.86816406 283.47753906 C-338.18656758 280.29900739 -339.50055542 277.11870169 -340.8125 273.9375 C-341.17657959 273.062146 -341.54065918 272.18679199 -341.91577148 271.28491211 C-344.25 265.6052519 -344.25 265.6052519 -344.25 263.375 C-344.90484375 263.15070313 -345.5596875 262.92640625 -346.234375 262.6953125 C-350.25878332 260.93333062 -353.81066102 258.62285153 -357.5 256.25 C-358.32137451 255.72647949 -359.14274902 255.20295898 -359.98901367 254.66357422 C-362.74545967 252.90503275 -365.49782205 251.14021259 -368.25 249.375 C-370.26155746 248.08828947 -372.27328049 246.80183777 -374.28515625 245.515625 C-378.51447742 242.81086126 -382.74202922 240.10335642 -386.96875 237.39453125 C-391.91327842 234.2275122 -396.86590989 231.07354802 -401.82348633 227.92700195 C-405.40681823 225.65128756 -408.98556828 223.36842565 -412.56396484 221.08496094 C-414.40073824 219.91564983 -416.23971341 218.74979205 -418.08056641 217.58691406 C-420.85047131 215.8366498 -423.61325852 214.07560866 -426.375 212.3125 C-427.21071533 211.78825439 -428.04643066 211.26400879 -428.9074707 210.72387695 C-433.77749124 207.59708803 -437.59729379 204.68041242 -440.25 199.375 C-440.75282832 193.86861777 -440.96321529 188.97260224 -438.6875 183.875 C-433.23446435 178.28214293 -425.51638052 175.62250295 -418.44921875 172.5859375 C-417.3977063 172.13034958 -416.34619385 171.67476166 -415.26281738 171.20536804 C-411.82277407 169.71620963 -408.38020294 168.23299817 -404.9375 166.75 C-402.52307366 165.70657577 -400.10876835 164.66287143 -397.69458008 163.61889648 C-390.5492228 160.53099224 -383.40035985 157.45130231 -376.25 154.375 C-375.27546875 153.95571228 -374.3009375 153.53642456 -373.296875 153.10443115 C-363.07430982 148.70771932 -352.84518201 144.3264172 -342.6131134 139.95187378 C-331.96921698 135.40094709 -321.32997745 130.839158 -310.69033813 126.27828979 C-304.70776134 123.71384549 -298.72496262 121.14991906 -292.7421875 118.5859375 C-290.31998593 117.54785402 -287.89778541 116.50976808 -285.47558594 115.47167969 C-280.71321615 113.43066406 -275.95084635 111.38964844 -271.18847656 109.34863281 C-270.03285721 108.85336594 -268.87723785 108.35809906 -267.68659973 107.8478241 C-265.35952671 106.85050999 -263.03244948 105.85320571 -260.70536804 104.85591125 C-254.89014965 102.3637257 -249.07500497 99.87136839 -243.26000977 97.37866211 C-232.73227519 92.86594938 -222.20401801 88.35447707 -211.67303467 83.84934998 C-187.63058471 73.56390496 -163.60470692 63.24348255 -139.625 52.8125 C-119.50864136 44.06281336 -99.3562069 35.40130688 -79.15917969 26.83935547 C-76.93942359 25.89818164 -74.71969691 24.95693842 -72.5 24.015625 C-71.40834534 23.55274078 -70.31669067 23.08985657 -69.19195557 22.61294556 C-62.46354953 19.7549292 -55.75026563 16.86415532 -49.04751587 13.94648743 C-44.69342986 12.05180493 -40.33499081 10.16725636 -35.97625732 8.28329468 C-33.93106243 7.39577968 -31.8880707 6.50316794 -29.84747314 5.60513306 C-27.04181492 4.37080352 -24.22901848 3.15434902 -21.4140625 1.94140625 C-20.5988916 1.57702454 -19.7837207 1.21264282 -18.94384766 0.83721924 C-12.71145962 -1.81641473 -6.37029238 -3.29220993 0 0 Z " fill="#E3E9F7" transform="translate(472.25,50.625)"/>
<path d="M0 0 C0 4.129532 -2.21548309 5.6951858 -4.9375 8.5 C-8.5599791 12.33662437 -12.06329164 16.19907454 -15.375 20.3125 C-18.98670494 24.79800452 -22.71420825 29.16195493 -26.5 33.5 C-30.23422748 37.78199271 -33.92459448 42.08332259 -37.5 46.5 C-41.57821716 51.53428272 -45.80617058 56.42510708 -50.06030273 61.31030273 C-54.04716333 65.89116089 -57.9881908 70.50750287 -61.90136719 75.15136719 C-65.28481948 79.16384184 -68.70100184 83.14710388 -72.125 87.125 C-75.61823856 91.18620876 -79.06448707 95.27518971 -82.4375 99.4375 C-86.53979949 104.48933717 -90.78701978 109.4030598 -95.06005859 114.31005859 C-99.04703759 118.89096638 -102.98811681 123.50741507 -106.90136719 128.15136719 C-110.28481948 132.16384184 -113.70100184 136.14710388 -117.125 140.125 C-120.61823856 144.18620876 -124.06448707 148.27518971 -127.4375 152.4375 C-131.53979949 157.48933717 -135.78701978 162.4030598 -140.06005859 167.31005859 C-144.04703759 171.89096638 -147.98811681 176.50741507 -151.90136719 181.15136719 C-155.28481948 185.16384184 -158.70100184 189.14710388 -162.125 193.125 C-165.61823856 197.18620876 -169.06448707 201.27518971 -172.4375 205.4375 C-176.53979949 210.48933717 -180.78701978 215.4030598 -185.06005859 220.31005859 C-189.04703759 224.89096638 -192.98811681 229.50741507 -196.90136719 234.15136719 C-200.28481948 238.16384184 -203.70100184 242.14710388 -207.125 246.125 C-210.61823856 250.18620876 -214.06448707 254.27518971 -217.4375 258.4375 C-221.55136614 263.50530611 -225.81597564 268.42962148 -230.10400391 273.34960938 C-235.15987811 279.15931188 -240.09906353 285.0591357 -245 291 C-242.27887657 292.81408229 -239.7636886 294.07675058 -236.78515625 295.3984375 C-235.72127686 295.87144287 -234.65739746 296.34444824 -233.5612793 296.83178711 C-232.40668213 297.34104736 -231.25208496 297.85030762 -230.0625 298.375 C-228.85827393 298.90810791 -227.65404785 299.44121582 -226.41333008 299.99047852 C-215.73788208 304.707853 -205.01190253 309.30565678 -194.27734375 313.88671875 C-186.25569471 317.31225139 -178.25195292 320.77875352 -170.25 324.25 C-169.57963715 324.54075409 -168.90927429 324.83150818 -168.21859741 325.131073 C-164.47872614 326.75326866 -160.73919879 328.3762549 -157 330 C-157 330.66 -157 331.32 -157 332 C-158.42675781 333.19824219 -158.42675781 333.19824219 -160.453125 334.546875 C-161.207146 335.05468506 -161.96116699 335.56249512 -162.73803711 336.08569336 C-163.56698486 336.63491455 -164.39593262 337.18413574 -165.25 337.75 C-167.00720649 338.93256008 -168.76369475 340.11618799 -170.51953125 341.30078125 C-171.42912598 341.91260254 -172.3387207 342.52442383 -173.27587891 343.15478516 C-177.52917498 346.03580431 -181.73442292 348.98389635 -185.9375 351.9375 C-186.76693115 352.51935059 -187.5963623 353.10120117 -188.45092773 353.70068359 C-190.13323294 354.88098047 -191.81528099 356.06164395 -193.49707031 357.24267578 C-197.59995641 360.12334045 -201.70597003 362.99953311 -205.8125 365.875 C-206.62750977 366.44581299 -207.44251953 367.01662598 -208.28222656 367.60473633 C-215.70820574 372.80248782 -223.15022849 377.97707757 -230.59765625 383.14404297 C-235.13800563 386.29766558 -239.66655277 389.46519369 -244.1640625 392.6796875 C-245.34802612 393.52442627 -245.34802612 393.52442627 -246.5559082 394.38623047 C-248.02355944 395.43580038 -249.48840554 396.48930775 -250.94995117 397.54736328 C-255.77964058 401 -255.77964058 401 -258 401 C-258.33 401.99 -258.66 402.98 -259 404 C-264.03230307 407.75226588 -268.87462175 408.69157496 -275 408 C-281.32785322 405.76664004 -284.76572346 401.45803722 -287.69067383 395.63305664 C-288.20711517 394.3966226 -288.71204291 393.15533388 -289.20703125 391.91015625 C-289.48905899 391.22644958 -289.77108673 390.54274292 -290.06166077 389.83831787 C-290.98881542 387.58374276 -291.90057427 385.32327276 -292.8125 383.0625 C-293.47115843 381.45295565 -294.13084815 379.84383298 -294.79150391 378.23510742 C-296.17537035 374.86029869 -297.55294894 371.48302608 -298.92529297 368.10351562 C-300.91911832 363.19445386 -302.92775667 358.29158338 -304.94140625 353.390625 C-305.59588617 351.79737162 -306.25034577 350.20410988 -306.90478516 348.61083984 C-307.22940735 347.82054382 -307.55402954 347.0302478 -307.88848877 346.21600342 C-308.88054819 343.79898258 -309.87096173 341.38129384 -310.86083984 338.96337891 C-315.48843615 327.66173345 -320.15134316 316.37507714 -324.83383179 305.09606934 C-327.59239412 298.45111105 -330.3481332 291.80498072 -333.10437012 285.15905762 C-333.94190285 283.14005238 -334.77998819 281.12127737 -335.61816406 279.10253906 C-336.93656758 275.92400739 -338.25055542 272.74370169 -339.5625 269.5625 C-339.92657959 268.687146 -340.29065918 267.81179199 -340.66577148 266.90991211 C-343 261.2302519 -343 261.2302519 -343 259 C-341.54150391 257.70996094 -341.54150391 257.70996094 -339.4765625 256.234375 C-338.32994141 255.40486328 -338.32994141 255.40486328 -337.16015625 254.55859375 C-336.32355469 253.96175781 -335.48695313 253.36492187 -334.625 252.75 C-327.98973407 247.94515226 -321.43867494 243.06536853 -315 238 C-308.01364979 232.51748997 -300.91376675 227.21163779 -293.74951172 221.96435547 C-288.29336665 217.96468084 -282.90725933 213.89266073 -277.55859375 209.75 C-263.1861969 198.61971907 -248.65158954 187.69964527 -234.0859375 176.82421875 C-229.45950712 173.36417011 -224.84758835 169.88741085 -220.2578125 166.37890625 C-211.65969231 159.80661371 -203.04719754 153.26511607 -194.3125 146.875 C-187.36455013 141.79048496 -180.5451454 136.5649273 -173.77099609 131.25170898 C-167.6119394 126.43704565 -161.33792556 121.79338067 -155.03076172 117.17529297 C-147.69944036 111.80019077 -140.48036926 106.28674821 -133.2734375 100.74658203 C-121.58311693 91.76542295 -109.85022706 82.85505258 -97.95361328 74.14868164 C-91.80139661 69.62982523 -85.77693904 64.96239435 -79.77099609 60.25170898 C-73.6119394 55.43704565 -67.33792556 50.79338067 -61.03076172 46.17529297 C-53.7036538 40.80327994 -46.48916241 35.29266014 -39.28662109 29.75537109 C-35.01096446 26.47307649 -30.72444325 23.20503205 -26.4375 19.9375 C-25.11866821 18.93227295 -25.11866821 18.93227295 -23.77319336 17.90673828 C-15.87954375 11.89664245 -7.94908409 5.93651542 0 0 Z " fill="#D0D5E2" transform="translate(471,55)"/>
<path d="M0 0 C9.66692556 3.58133119 19.1064406 7.58304217 28.54025269 11.73098755 C32.7964804 13.60238436 37.05681815 15.46439305 41.31640625 17.328125 C42.62708824 17.90210777 42.62708824 17.90210777 43.96424866 18.48768616 C53.60895651 22.70945115 63.27227892 26.88796176 72.9375 31.0625 C74.56575928 31.76602249 76.1940146 32.46955413 77.82226562 33.1730957 C81.5479121 34.78267802 85.27385545 36.39157108 89 38 C89 38.66 89 39.32 89 40 C87.57324219 41.19824219 87.57324219 41.19824219 85.546875 42.546875 C84.792854 43.05468506 84.03883301 43.56249512 83.26196289 44.08569336 C82.43301514 44.63491455 81.60406738 45.18413574 80.75 45.75 C78.99279351 46.93256008 77.23630525 48.11618799 75.48046875 49.30078125 C74.57087402 49.91260254 73.6612793 50.52442383 72.72412109 51.15478516 C68.47082502 54.03580431 64.26557708 56.98389635 60.0625 59.9375 C59.23306885 60.51935059 58.4036377 61.10120117 57.54907227 61.70068359 C55.86676706 62.88098047 54.18471901 64.06164395 52.50292969 65.24267578 C48.40004359 68.12334045 44.29402997 70.99953311 40.1875 73.875 C38.96498535 74.73121948 38.96498535 74.73121948 37.71777344 75.60473633 C31.25904162 80.12547119 24.78683358 84.62664799 18.3125 89.125 C8.84286153 95.70489499 -0.59200039 102.33231705 -10 109 C-10.66 108.67 -11.32 108.34 -12 108 C-11.69191406 107.15953125 -11.38382813 106.3190625 -11.06640625 105.453125 C-7.98535601 95.4763909 -7.77779604 84.41379702 -7.34155273 74.02832031 C-7.09554511 68.44879182 -7.09554511 68.44879182 -6.52514648 65.76953125 C-5.83685709 62.13961268 -5.60112001 58.50421155 -5.3515625 54.82421875 C-5.23376902 53.18495641 -5.11567466 51.54571566 -4.99731445 49.90649414 C-4.93661774 49.05314484 -4.87592102 48.19979553 -4.81338501 47.32058716 C-3.67931358 31.46949095 -2.23492478 15.73957667 0 0 Z " fill="#BABEC9" transform="translate(225,347)"/>
</svg>
