<?xml version="1.0" encoding="UTF-8"?>
<svg version="1.1" xmlns="http://www.w3.org/2000/svg" width="1080" height="1080">
<path d="M0 0 C4.35943227 0.01024298 8.71880889 -0.00293051 13.07823303 -0.01297333 C20.70195628 -0.02735599 28.32556603 -0.02702154 35.94929436 -0.01678469 C47.28636664 -0.00160336 58.62334385 -0.0094163 69.96041557 -0.02161792 C90.21286533 -0.04264466 110.46526452 -0.04086977 130.71771905 -0.02930227 C148.44126582 -0.01922922 166.16479408 -0.01661828 183.88834313 -0.02139284 C185.65367838 -0.02185116 185.65367838 -0.02185116 187.45467697 -0.02231872 C192.23238498 -0.02356413 197.01009298 -0.02483774 201.78780098 -0.02615778 C246.58143624 -0.03838629 291.37503934 -0.02731181 336.16866964 -0.00577019 C375.94135391 0.01321139 415.71398694 0.01151285 455.48667076 -0.00761416 C500.1998078 -0.02904534 544.91291643 -0.03751896 589.62605789 -0.0251651 C594.39492347 -0.02388229 599.16378906 -0.02263092 603.93265465 -0.02139284 C605.10682039 -0.02107654 606.28098613 -0.02076023 607.49073265 -0.02043433 C625.20058848 -0.01588967 642.91042374 -0.0211958 660.62027672 -0.03131106 C680.76267215 -0.04275853 700.90500922 -0.0398665 721.0473974 -0.01818808 C732.31223105 -0.00646324 743.57693824 -0.0056468 754.84176854 -0.02077278 C762.37541861 -0.02977073 769.90896773 -0.02410897 777.4426029 -0.0067537 C781.72878817 0.00272013 786.01472302 0.00610198 790.30090001 -0.00837763 C807.16646328 -0.06117414 823.52006294 -0.03513786 839.91049889 4.51387022 C840.58225993 4.69414619 841.25402097 4.87442215 841.94613841 5.06016103 C875.03315883 14.03318803 901.48546882 37.58357523 918.40659264 66.77168272 C923.42665174 75.70231714 927.19390241 84.62009512 929.91049889 94.51387022 C930.08946014 95.15324419 930.2684214 95.79261817 930.45280573 96.45136712 C934.8747546 112.94627366 934.48155256 129.67623051 934.4243691 146.60337133 C934.41412612 150.9628036 934.42729961 155.32218021 934.43734244 159.68160436 C934.45172509 167.30532761 934.45139064 174.92893735 934.44115379 182.55266569 C934.42597246 193.88973797 934.4337854 205.22671518 934.44598702 216.5637869 C934.46701376 236.81623666 934.46523888 257.06863584 934.45367137 277.32109038 C934.44359833 295.04463715 934.44098739 312.76816541 934.44576195 330.49171446 C934.44622026 332.25704971 934.44622026 332.25704971 934.44668783 334.0580483 C934.44793324 338.83575631 934.44920684 343.61346431 934.45052688 348.3911723 C934.46275539 393.18480757 934.45168092 437.97841067 934.4301393 482.77204097 C934.41115771 522.54472524 934.41285626 562.31735827 934.43198326 602.09004209 C934.45341444 646.80317913 934.46188806 691.51628776 934.44953421 736.22942922 C934.44825139 740.9982948 934.44700003 745.76716039 934.44576195 750.53602598 C934.44544564 751.71019172 934.44512933 752.88435746 934.44480344 754.09410398 C934.44025877 771.80395981 934.4455649 789.51379507 934.45568016 807.22364805 C934.46712764 827.36604348 934.46423561 847.50838055 934.44255719 867.65076873 C934.43083235 878.91560238 934.4300159 890.18030957 934.44514188 901.44513987 C934.45413984 908.97878994 934.44847807 916.51233906 934.43112281 924.04597422 C934.42164897 928.33215949 934.41826713 932.61809435 934.43274674 936.90427134 C934.56325817 978.64802406 925.5641231 1013.93735453 895.53549889 1044.38887022 C888.83139016 1050.9923806 882.08169328 1056.77707283 873.91049889 1061.51387022 C873.21231041 1061.9218585 872.51412193 1062.32984678 871.79477623 1062.75019834 C863.44624995 1067.55145065 854.96728946 1071.81765958 845.84799889 1074.95137022 C845.21418297 1075.1739752 844.58036705 1075.39658018 843.92734459 1075.62593076 C825.45601069 1081.51254926 806.29456654 1080.9499828 787.1478113 1080.90547424 C782.80081425 1080.89871382 778.45385239 1080.90945573 774.10686305 1080.91787008 C766.50181756 1080.93020006 758.89683379 1080.93146534 751.29178169 1080.92531965 C739.98232896 1080.91620498 728.67293302 1080.92427956 717.36348462 1080.93561089 C697.16018117 1080.95525462 676.9569034 1080.95762959 656.75359267 1080.95241569 C639.07060835 1080.9478546 621.38763419 1080.94846258 603.70465019 1080.95425604 C601.3306438 1080.95501291 598.9566374 1080.95576889 596.58263101 1080.95652398 C593.0050002 1080.9576692 589.4273694 1080.95881908 585.8497386 1080.95998322 C552.59758753 1080.97068485 519.34543984 1080.97541696 486.09328774 1080.96751306 C484.21395554 1080.9670673 484.21395554 1080.9670673 482.29665705 1080.96661254 C472.12300473 1080.96416372 461.94935245 1080.96155207 451.77570018 1080.9589284 C412.09730971 1080.94882716 372.41896157 1080.95718044 332.74057701 1080.98042295 C288.1358427 1081.00650906 243.53113386 1081.01933985 198.92639163 1081.0122352 C194.16813131 1081.01151917 189.40987098 1081.01084478 184.65161064 1081.01019476 C182.89427425 1081.00994004 182.89427425 1081.00994004 181.10143611 1081.00968018 C163.43525435 1081.00737956 145.76909629 1081.01534291 128.10291985 1081.02848623 C108.00591739 1081.0434116 87.90897038 1081.0442217 67.8119691 1081.02641532 C56.57422489 1081.01686764 45.33661009 1081.01825584 34.09887457 1081.03565001 C26.58066244 1081.04617005 19.06254847 1081.04199629 11.54434594 1081.02616997 C7.26857925 1081.01757159 2.99306536 1081.01503076 -1.28268796 1081.03043929 C-43.61676829 1081.17216288 -78.8125388 1072.58770937 -109.77700111 1042.32637022 C-117.0540054 1035.01076113 -122.96101184 1027.45100041 -128.08950111 1018.51387022 C-128.48604896 1017.83324522 -128.88259682 1017.15262022 -129.29116127 1016.45137022 C-134.84618565 1006.80818469 -139.13590577 997.26892351 -142.08950111 986.51387022 C-142.26846741 985.8744912 -142.4474337 985.23511219 -142.63182321 984.57635806 C-147.05368743 968.0814187 -146.66055485 951.35152726 -146.60337133 934.4243691 C-146.59312834 930.06493683 -146.60630184 925.70556022 -146.61634466 921.34613607 C-146.63072732 913.72241283 -146.63039287 906.09880308 -146.62015602 898.47507475 C-146.60497469 887.13800246 -146.61278763 875.80102525 -146.62498925 864.46395353 C-146.64601599 844.21150377 -146.6442411 823.95910459 -146.6326736 803.70665006 C-146.62260055 785.98310329 -146.61998961 768.25957503 -146.62476417 750.53602598 C-146.62506971 749.35913581 -146.62537525 748.18224564 -146.62569005 746.96969213 C-146.62693546 742.19198412 -146.62820907 737.41427612 -146.62952911 732.63656813 C-146.64175762 687.84293287 -146.63068314 643.04932976 -146.60914152 598.25569946 C-146.59015994 558.4830152 -146.59185848 518.71038216 -146.61098549 478.93769834 C-146.63241666 434.22456131 -146.64089028 389.51145267 -146.62853643 344.79831121 C-146.62725362 340.02944563 -146.62600225 335.26058005 -146.62476417 330.49171446 C-146.62444786 329.31754871 -146.62413156 328.14338297 -146.62380566 326.93363645 C-146.619261 309.22378062 -146.62456713 291.51394536 -146.63468239 273.80409238 C-146.64612986 253.66169695 -146.64323783 233.51935988 -146.62155941 213.3769717 C-146.60983457 202.11213805 -146.60901813 190.84743087 -146.62414411 179.58260056 C-146.63314206 172.04895049 -146.6274803 164.51540138 -146.61012503 156.98176621 C-146.6006512 152.69558094 -146.59726935 148.40964609 -146.61174896 144.12346909 C-146.74374995 101.90328829 -137.48040139 66.86308878 -107.15200111 36.07637022 C-91.90960287 21.07964357 -72.74088085 10.12246491 -52.08950111 4.51387022 C-51.45350589 4.33659582 -50.81751067 4.15932142 -50.16224286 3.97667507 C-33.66021815 -0.44329275 -16.93376415 -0.05720583 0 0 Z " fill="#F0323E" transform="translate(146.0895011126995,-0.5138702169060707)"/>
<path d="M0 0 C0.86366684 -0.00570007 1.72733368 -0.01140015 2.61717224 -0.01727295 C4.45057956 -0.02673239 6.28400396 -0.03326067 8.11743164 -0.03710938 C10.89826074 -0.04675248 13.67833082 -0.07774015 16.45898438 -0.109375 C18.24348521 -0.11591152 20.02799132 -0.12115944 21.8125 -0.125 C22.63472549 -0.1373468 23.45695099 -0.1496936 24.30409241 -0.16241455 C30.88520698 -0.13753021 37.07149722 0.9167904 42.57250977 4.72851562 C46.59186277 9.127873 50.03245785 13.72764547 53.30859375 18.703125 C54.44423859 20.39525248 55.58100809 22.08662557 56.71875 23.77734375 C57.31187988 24.66212402 57.90500977 25.5469043 58.51611328 26.45849609 C61.70742785 31.1803648 64.98072065 35.84481634 68.24609375 40.515625 C74.12782236 48.94804942 79.94303113 57.42296531 85.72167969 65.92626953 C90.27054231 72.6110679 94.87122738 79.25821913 99.49609375 85.890625 C104.5237613 93.10105386 109.53241557 100.32346282 114.49609375 107.578125 C115.25817139 108.69127075 115.25817139 108.69127075 116.03564453 109.8269043 C118.56226753 113.52609211 121.06727259 117.23867139 123.55029297 120.96728516 C124.08129608 121.76445953 124.61229919 122.56163391 125.15939331 123.38296509 C125.55925446 123.98361786 125.9591156 124.58427063 126.37109375 125.203125 C126.37467628 124.33013291 126.37467628 124.33013291 126.37833118 123.43950462 C126.43751113 109.26713105 126.51308028 95.09492373 126.60680866 80.92273521 C126.65174168 74.06911127 126.691162 67.215539 126.7175293 60.36181641 C126.74298867 53.74814092 126.78391023 47.13467771 126.83428001 40.52113724 C126.85097046 37.99740077 126.86247113 35.4736245 126.86870766 32.94984055 C126.87832471 29.41602179 126.90635684 25.88279454 126.9387207 22.34912109 C126.93728561 21.30470856 126.93585052 20.26029602 126.93437195 19.18423462 C127.00433222 13.78599871 127.27964405 9.83690565 130.37109375 5.203125 C134.15389064 1.78938146 136.55484962 0.08666488 141.61791992 0.04199219 C142.49610886 0.03238464 143.37429779 0.0227771 144.27909851 0.01287842 C145.23113663 0.00862854 146.18317474 0.00437866 147.1640625 0 C148.14345291 -0.00570007 149.12284332 -0.01140015 150.13191223 -0.01727295 C152.2091056 -0.02673225 154.28631405 -0.03326061 156.36352539 -0.03710938 C159.52842809 -0.0467828 162.69267257 -0.07778427 165.85742188 -0.109375 C167.87629823 -0.11590829 169.89517923 -0.12115748 171.9140625 -0.125 C172.85597946 -0.1373468 173.79789642 -0.1496936 174.76835632 -0.16241455 C180.41694371 -0.14345155 184.38669025 0.48073946 189.37109375 3.203125 C192.97602392 6.99778833 194.49221661 10.02556721 194.50531483 15.23562145 C194.50977267 16.05874236 194.51423051 16.88186327 194.51882344 17.72992724 C194.51863908 18.63399556 194.51845472 19.53806387 194.51826477 20.4695282 C194.52194146 21.4301653 194.52561815 22.39080241 194.52940625 23.38054973 C194.54045884 26.61397535 194.54428961 29.84736885 194.5480957 33.08081055 C194.55435916 35.39336754 194.56100585 37.70592352 194.56800842 40.01847839 C194.58542896 46.31202211 194.59597306 52.60555823 194.60421395 58.89912009 C194.60936187 62.82981546 194.61543769 66.76050846 194.62172508 70.69120216 C194.63859593 81.57638505 194.6532307 92.46156501 194.66047382 103.34675884 C194.66238368 106.17119536 194.66430402 108.99563187 194.66625977 111.82006836 C194.66674351 112.52205846 194.66722725 113.22404856 194.66772565 113.94731108 C194.67602406 125.31638628 194.70135789 136.68535621 194.73384044 148.05438545 C194.7669261 159.7298112 194.78459129 171.40517804 194.78811806 183.08065063 C194.79047038 189.63475152 194.79945466 196.18868602 194.82457924 202.74274254 C194.84783638 208.90937729 194.85210247 215.07573581 194.84181786 221.24240303 C194.84132182 223.5046976 194.84766218 225.76700566 194.8613739 228.02925873 C194.87906016 231.12043838 194.8720021 234.21062325 194.85884094 237.30180359 C194.86981019 238.1947183 194.88077943 239.087633 194.89208108 240.00760573 C194.83175981 245.88557375 193.63667216 250.26950847 190.37109375 255.203125 C186.82901062 258.63451803 183.18722699 259.31017042 178.37207031 259.38012695 C177.59736389 259.39296219 176.82265747 259.40579742 176.0244751 259.41902161 C174.78066071 259.43010201 174.78066071 259.43010201 173.51171875 259.44140625 C172.64851013 259.449478 171.78530151 259.45754974 170.89593506 259.46586609 C169.07029207 259.47967861 167.24462356 259.4904134 165.41894531 259.49829102 C163.56079489 259.50980312 161.70267733 259.53024278 159.84472656 259.55981445 C157.15016361 259.60268032 154.45658119 259.61868634 151.76171875 259.62890625 C150.53004974 259.65516838 150.53004974 259.65516838 149.27349854 259.68196106 C142.39839999 259.65641402 137.3441547 257.77660708 132.12768555 253.26123047 C127.03483999 247.23133554 122.55082465 240.8992746 118.18359375 234.328125 C117.43854762 233.21810223 116.69276779 232.10857159 115.94628906 230.99951172 C114.45131262 228.77744575 112.95943345 226.55341314 111.46923828 224.328125 C108.5471632 219.97595359 105.58740967 215.65020968 102.62109375 211.328125 C101.57151271 209.79564269 100.52203263 208.26309121 99.47265625 206.73046875 C98.9612207 205.98394043 98.44978516 205.23741211 97.92285156 204.46826172 C89.92689726 192.79638254 81.94404913 181.11565871 73.97729492 169.42382812 C70.90340031 164.91359002 67.82664482 160.40536638 64.7421875 155.90234375 C64.16339844 155.05736328 63.58460938 154.21238281 62.98828125 153.34179688 C61.91197012 151.77113354 60.83519017 150.20079132 59.7578125 148.63085938 C57.21132886 144.91500364 54.68611945 141.18648235 52.18969727 137.43676758 C51.65901138 136.63991043 51.1283255 135.84305328 50.58155823 135.02204895 C50.18210495 134.42180405 49.78265167 133.82155914 49.37109375 133.203125 C49.37054898 133.78842987 49.37000422 134.37373474 49.36944294 134.97677612 C49.35445271 149.24168342 49.31191557 163.50631389 49.23900318 177.77104187 C49.20440162 184.66949981 49.17900405 191.56775894 49.17553711 198.46630859 C49.17216429 205.12549981 49.1427945 211.78411565 49.09766197 218.44317627 C49.08468572 220.9820057 49.0803797 223.52089492 49.08493996 226.05975342 C49.08984459 229.61980965 49.06375567 233.17840474 49.03051758 236.73828125 C49.03914322 237.78485397 49.04776886 238.8314267 49.05665588 239.90971375 C48.95410733 246.47434148 47.83757966 251.21975756 43.37109375 256.203125 C37.80592382 259.66918575 32.41519097 259.65680996 26.0546875 259.63671875 C25.08000015 259.6419606 24.10531281 259.64720245 23.10108948 259.65260315 C21.04958038 259.65900073 18.99803448 259.65771583 16.9465332 259.64916992 C13.81460254 259.64064136 10.68448608 259.66948343 7.55273438 259.70117188 C5.55338596 259.70278368 3.55403433 259.70220675 1.5546875 259.69921875 C0.62329453 259.71045273 -0.30809845 259.72168671 -1.26771545 259.73326111 C-6.84292894 259.67368531 -10.40126205 259.19697514 -14.62890625 255.203125 C-18.54983664 249.41046888 -19.20403941 244.17881761 -19.13011169 237.32199097 C-19.13564609 236.35567061 -19.14118049 235.38935024 -19.14688259 234.39374745 C-19.16044496 231.17092439 -19.14554357 227.94888167 -19.13061523 224.72607422 C-19.13439995 222.40953239 -19.13990125 220.09299282 -19.14698792 217.77645874 C-19.16093816 211.49564175 -19.14977619 205.21509883 -19.1332767 198.93429708 C-19.11941884 192.36009605 -19.125887 185.78591081 -19.12940979 179.21170044 C-19.1328407 168.17413079 -19.11873095 157.13666398 -19.09545898 146.09912109 C-19.071529 134.74816858 -19.06445977 123.39735993 -19.07495117 112.04638672 C-19.08758207 98.35616803 -19.08506707 84.66605047 -19.06929207 70.97583389 C-19.0635321 65.75028047 -19.06361503 60.52477517 -19.06835747 55.29922104 C-19.073127 49.1481232 -19.06302628 42.99722463 -19.04140282 36.8461647 C-19.03583499 34.58787966 -19.0353696 32.32957547 -19.04035568 30.07128906 C-19.0463047 26.99073494 -19.03381028 23.91079089 -19.0165863 20.83029175 C-19.02259635 19.93496196 -19.02860639 19.03963217 -19.03479856 18.11717117 C-18.98337864 13.06595663 -18.44097595 9.57411945 -15.62890625 5.203125 C-10.36281185 0.45079591 -6.91766276 0.03514992 0 0 Z " fill="#FEFDFD" transform="translate(251.62890625,552.796875)"/>
<path d="M0 0 C1.0349762 -0.00960754 2.06995239 -0.01921509 3.1362915 -0.02911377 C4.80664459 -0.03548859 4.80664459 -0.03548859 6.51074219 -0.04199219 C7.66249939 -0.04769226 8.81425659 -0.05339233 10.00091553 -0.05926514 C12.4385893 -0.06870981 14.87627582 -0.075247 17.31396484 -0.07910156 C21.02952568 -0.08879391 24.7445302 -0.11981782 28.45996094 -0.15136719 C30.83105141 -0.1578989 33.20214583 -0.16314871 35.57324219 -0.16699219 C36.67871399 -0.17933899 37.78418579 -0.19168579 38.92315674 -0.20440674 C47.62582852 -0.17947551 54.480705 1.18199567 61.05224609 7.22900391 C64.72209815 11.26839322 67.56186298 15.88835719 70.49511719 20.47363281 C71.90860677 22.64022181 73.32398295 24.80558112 74.74121094 26.96972656 C75.4319873 28.02788574 76.12276367 29.08604492 76.83447266 30.17626953 C79.48952108 34.19267908 82.25312932 38.12321123 85.05761719 42.03613281 C89.87076587 48.75909156 94.47451683 55.60423628 98.9765625 62.53955078 C99.44932617 63.26029785 99.92208984 63.98104492 100.40917969 64.72363281 C100.82506348 65.36429688 101.24094727 66.00496094 101.66943359 66.66503906 C102.75303478 68.31762064 102.75303478 68.31762064 104.80761719 69.16113281 C105.07300293 68.4325708 105.33838867 67.70400879 105.61181641 66.95336914 C106.80817209 64.1598371 108.18223336 61.95764062 109.94042969 59.48535156 C110.57400391 58.58655273 111.20757813 57.68775391 111.86035156 56.76171875 C112.54419922 55.80040039 113.22804688 54.83908203 113.93261719 53.84863281 C120.51934648 44.49691826 126.93813951 35.05098174 133.22607422 25.49584961 C148.39155874 2.54488634 148.39155874 2.54488634 156.18777466 0.55302429 C158.84382905 0.15571603 161.35285394 0.02734759 164.03759766 0.01586914 C165.05570526 0.00948929 166.07381287 0.00310944 167.12277222 -0.00346375 C168.21244293 -0.00457657 169.30211365 -0.00568939 170.42480469 -0.00683594 C171.55532257 -0.01016434 172.68584045 -0.01349274 173.85061646 -0.016922 C176.23943679 -0.02197909 178.62826416 -0.0243307 181.01708984 -0.02416992 C184.66222837 -0.02635497 188.30706348 -0.04451995 191.95214844 -0.06347656 C194.27636616 -0.06641105 196.60058531 -0.06839548 198.92480469 -0.06933594 C200.01042694 -0.07652145 201.09604919 -0.08370697 202.21456909 -0.09111023 C215.20381451 -0.05209946 215.20381451 -0.05209946 220.30761719 4.28613281 C222.3033258 8.11124099 221.82868584 11.11012378 220.80761719 15.16113281 C219.62554866 17.82338686 218.11381479 20.18200307 216.49511719 22.59863281 C216.0492627 23.28763672 215.6034082 23.97664062 215.14404297 24.68652344 C211.47166171 30.30505067 207.60082745 35.78451697 203.69311523 41.2409668 C199.25602495 47.45513027 195.0223648 53.79461938 190.80761719 60.16113281 C185.59624215 68.02824533 180.29674373 75.81233572 174.82104492 83.49755859 C171.45669364 88.22299797 168.20691374 93.01127921 165.01074219 97.85253906 C162.08230251 102.25039085 159.10318206 106.61270984 156.12011719 110.97363281 C155.29942749 112.17511963 155.29942749 112.17511963 154.4621582 113.40087891 C153.66829712 114.56031006 153.66829712 114.56031006 152.85839844 115.74316406 C152.34873535 116.49162598 151.83907227 117.24008789 151.31396484 118.01123047 C150.33069181 119.4145858 149.31554795 120.79628712 148.26611328 122.15087891 C145.64642935 125.20856823 145.64642935 125.20856823 144.9284668 128.97290039 C146.16082144 132.0402691 147.95894982 134.64624726 149.83105469 137.34863281 C150.24398773 137.9547641 150.65692078 138.56089539 151.08236694 139.18539429 C152.44371747 141.18105746 153.8131679 143.17102046 155.18261719 145.16113281 C156.13796271 146.5586769 157.09270763 147.95663174 158.046875 149.35498047 C160.00777299 152.22740505 161.97152542 155.09784466 163.9375 157.96679688 C167.77346974 163.56783259 171.58048085 169.18840938 175.38754272 174.80911255 C177.34239171 177.69445353 179.29940746 180.57832259 181.25683594 183.46191406 C181.63783951 184.02319504 182.01884308 184.58447601 182.41139221 185.1627655 C184.98326491 188.95025541 187.56032459 192.73418013 190.13964844 196.51660156 C197.31204114 207.03693385 204.45599211 217.57565905 211.53268433 228.16061401 C212.33363382 229.35831868 213.1353171 230.55553299 213.93777466 231.75222778 C215.05173548 233.414268 216.16217364 235.07866759 217.27246094 236.74316406 C217.90788818 237.69425049 218.54331543 238.64533691 219.19799805 239.62524414 C221.98406046 244.01457074 223.45852717 246.84536797 222.80761719 252.16113281 C220.8874261 255.54066913 219.53941576 256.87983256 215.90063477 258.27856445 C210.64487302 259.65074667 205.2800923 259.50571168 199.88183594 259.53222656 C198.73906693 259.54125504 197.59629791 259.55028351 196.41889954 259.55958557 C194.00756435 259.57405401 191.5961902 259.58296631 189.18481445 259.58666992 C185.517386 259.59856061 181.851644 259.647779 178.18457031 259.69824219 C175.833667 259.70770827 173.48275344 259.71494242 171.13183594 259.71972656 C170.04609787 259.73925888 168.9603598 259.7587912 167.84172058 259.77891541 C159.46190813 259.72983789 152.60214328 257.7752634 146.42480469 251.89160156 C145.56242187 250.63283203 145.56242187 250.63283203 144.68261719 249.34863281 C143.94527344 248.2903125 143.20792969 247.23199219 142.44824219 246.14160156 C141.56614556 244.81603327 140.68614852 243.48906672 139.80761719 242.16113281 C138.65704308 240.44857901 137.50596022 238.73636694 136.35449219 237.02441406 C133.65977317 233.00427169 130.98393346 228.97215147 128.31542969 224.93457031 C125.09846847 220.07962168 121.83894665 215.25648741 118.54980469 210.45019531 C117.89330429 209.48953156 117.89330429 209.48953156 117.22354126 208.50946045 C115.49014579 205.97354253 113.75654758 203.43782852 112.01397705 200.90820312 C110.80578599 199.15406274 109.60312533 197.39624642 108.40136719 195.63769531 C107.70720703 194.62787598 107.01304687 193.61805664 106.29785156 192.57763672 C104.80761719 190.16113281 104.80761719 190.16113281 104.80761719 188.16113281 C100.47684456 191.97558461 97.62173402 196.74496098 94.49511719 201.53613281 C93.24354301 203.43394789 91.99090355 205.33106078 90.73730469 207.22753906 C90.09116211 208.20609863 89.44501953 209.1846582 88.77929688 210.19287109 C84.37315472 216.82609006 79.86378813 223.38931193 75.36230469 229.95800781 C73.09517151 233.2665328 70.84978237 236.58767068 68.62792969 239.92675781 C68.13768311 240.65725342 67.64743652 241.38774902 67.14233398 242.14038086 C66.24857326 243.47297919 65.36135332 244.81000263 64.48266602 246.15258789 C59.65301659 253.31083569 54.20030693 257.21342199 45.80761719 259.16113281 C41.64342179 259.58068836 37.51009885 259.6057307 33.32714844 259.59472656 C32.15552658 259.59996841 30.98390472 259.60521027 29.77677917 259.61061096 C27.31351511 259.61700447 24.85022041 259.61572903 22.38696289 259.60717773 C18.6210321 259.59863489 14.85660288 259.62752208 11.09082031 259.65917969 C8.69043014 259.6607911 6.29003729 259.66021532 3.88964844 259.65722656 C2.76766556 259.66846054 1.64568268 259.67969452 0.48970032 259.69126892 C-6.3229379 259.63049684 -10.26898649 259.08452914 -15.19238281 254.16113281 C-16.27029012 248.20814471 -15.46407863 243.95322679 -12.09082031 238.94238281 C-11.45305664 237.98412598 -10.81529297 237.02586914 -10.15820312 236.03857422 C-9.50948242 235.08901855 -8.86076172 234.13946289 -8.19238281 233.16113281 C-7.62874023 232.32114746 -7.06509766 231.48116211 -6.484375 230.61572266 C-4.77558257 228.07968963 -3.04877986 225.55678076 -1.31738281 223.03613281 C0.00571755 221.10266475 1.32862682 219.16906592 2.65136719 217.23535156 C3.33328125 216.23938965 4.01519531 215.24342773 4.71777344 214.21728516 C8.21617429 209.1012826 11.69910217 203.97477766 15.18261719 198.84863281 C16.62009409 196.73403378 18.05759422 194.61945053 19.49511719 192.50488281 C20.20925781 191.45429687 20.92339844 190.40371094 21.65917969 189.32128906 C23.77066594 186.21548475 25.88277496 183.110105 27.99511719 180.00488281 C35.75117781 168.60274122 43.50144317 157.19668917 51.24511719 145.78613281 C51.66243103 145.17128021 52.07974487 144.55642761 52.50970459 143.92294312 C53.69118285 142.18212403 54.87248103 140.44118292 56.05371094 138.70019531 C56.73103271 137.70197754 57.40835449 136.70375977 58.10620117 135.67529297 C60.92768155 132.06638975 60.92768155 132.06638975 61.65527344 127.79003906 C60.65327229 124.68245024 59.23749559 122.68365606 57.24511719 120.09863281 C54.42536013 116.34725991 51.70309959 112.57957208 49.12011719 108.66113281 C45.71123791 103.50138947 42.24199327 98.38663845 38.74511719 93.28613281 C37.61619355 91.63900931 36.48728775 89.99187359 35.35839844 88.34472656 C34.77783691 87.49765137 34.19727539 86.65057617 33.59912109 85.77783203 C29.90225131 80.37812497 26.21833215 74.96957934 22.53369141 69.56152344 C18.77018186 64.03798858 15.00086637 58.51850295 11.2253418 53.00317383 C9.37076433 50.28708057 7.5264595 47.56420916 5.68261719 44.84082031 C2.93669815 40.79158463 0.13469392 36.78688916 -2.69238281 32.79394531 C-4.17192887 30.66660496 -5.65110426 28.53900675 -7.12988281 26.41113281 C-7.83491943 25.43547363 -8.53995605 24.45981445 -9.26635742 23.45458984 C-13.06495863 17.93116446 -14.98009705 13.97450328 -14.66040039 7.20336914 C-14.19238281 5.16113281 -14.19238281 5.16113281 -11.94238281 2.59863281 C-7.87500017 0.47250098 -4.56561572 0.03431272 0 0 Z " fill="#FEFEFE" transform="translate(634.1923828125,552.8388671875)"/>
<path d="M0 0 C0.70448273 -0.00168182 1.40896545 -0.00336365 2.13479614 -0.00509644 C26.20788351 0.05452161 47.91356048 8.00927885 65.6875 24.5 C66.59886719 25.31984375 67.51023437 26.1396875 68.44921875 26.984375 C86.2688486 43.7850302 96.8458449 66.59169713 98.03125 91.0703125 C98.78526166 119.2621053 89.48767749 144.07590377 70.46484375 164.9375 C53.94587977 182.18481336 29.78220175 193.09157185 5.9296875 193.703125 C-24.38897772 194.07754653 -48.33619068 185.17767767 -70.375 163.875 C-80.67071884 153.55964221 -87.27416196 141.07458766 -92.3125 127.5 C-92.74820313 126.33984375 -93.18390625 125.1796875 -93.6328125 123.984375 C-100.87775735 100.5776301 -97.69760929 73.65367349 -86.53491211 52.07617188 C-83.0670825 45.7491292 -78.91857608 40.04948926 -74.3125 34.5 C-73.61511719 33.63890625 -72.91773438 32.7778125 -72.19921875 31.890625 C-60.1529677 17.70820147 -43.36019524 7.13231822 -25.3125 2.5 C-24.63888428 2.32629883 -23.96526855 2.15259766 -23.27124023 1.97363281 C-15.5704466 0.19658794 -7.876046 0.01466288 0 0 Z " fill="#FEFDFD" transform="translate(265.3125,274.5)"/>
<path d="M0 0 C234.3 0 468.6 0 710 0 C710 9.24 710 18.48 710 28 C475.7 28 241.4 28 0 28 C0 18.76 0 9.52 0 0 Z " fill="#FEFEFE" transform="translate(185,495)"/>
<path d="M0 0 C0.96308075 -0.00571014 1.9261615 -0.01142029 2.91842651 -0.01730347 C3.97354935 -0.01842133 5.02867218 -0.01953918 6.11576843 -0.02069092 C7.22822937 -0.02565582 8.34069031 -0.03062073 9.48686218 -0.03573608 C13.17526361 -0.05036775 16.86362202 -0.05716139 20.55204773 -0.06268311 C23.1117147 -0.0684337 25.67138165 -0.07419144 28.23104858 -0.07995605 C32.91521036 -0.08912465 37.59935919 -0.09542382 42.28352767 -0.09845281 C49.17157571 -0.10293171 56.05942513 -0.12047296 62.94741279 -0.1494534 C68.91840379 -0.17370113 74.88934547 -0.18139842 80.8603878 -0.18312836 C83.3981198 -0.18615685 85.93585092 -0.19419195 88.4735508 -0.20731354 C92.02371406 -0.22435988 95.5733934 -0.22249692 99.12358093 -0.21600342 C100.17263107 -0.2252182 101.22168121 -0.23443298 102.30252075 -0.243927 C107.7224692 -0.21285827 111.65074159 0.04078724 116.31376648 3.14044189 C118.94533715 6.49325083 118.63634795 10.44401838 118.64970398 14.53887939 C118.65968918 15.60774887 118.65968918 15.60774887 118.6698761 16.69821167 C118.67997936 18.20269193 118.68469384 19.7072168 118.68437195 21.21173096 C118.68873937 23.50122796 118.72506247 25.78878642 118.76298523 28.07794189 C118.76885532 29.54408118 118.77282343 31.01022956 118.77470398 32.47637939 C118.78907501 33.15469818 118.80344604 33.83301697 118.81825256 34.53189087 C118.77104442 39.4981722 117.41737852 42.31532862 114.31376648 46.14044189 C111.33133093 47.63165967 108.28760896 47.27045662 105.01835632 47.25396729 C103.89138084 47.25418633 103.89138084 47.25418633 102.74163818 47.25440979 C100.25263098 47.25371186 97.76369815 47.24592503 95.27470398 47.23809814 C93.55120383 47.23623354 91.82770314 47.23480984 90.10420227 47.23381042 C85.56350751 47.22998858 81.02284463 47.22016112 76.48216248 47.20910645 C71.85051403 47.19888518 67.21886045 47.19431127 62.58720398 47.18927002 C53.49604187 47.17853857 44.40491181 47.16094444 35.31376648 47.14044189 C35.31376648 55.06044189 35.31376648 62.98044189 35.31376648 71.14044189 C37.04457458 71.11949463 38.77538269 71.09854736 40.55863953 71.07696533 C46.28618433 71.01238648 52.01367672 70.96646768 57.74148846 70.93319321 C61.21329832 70.91234478 64.68471321 70.88407895 68.15629578 70.83868408 C72.15023017 70.7867875 76.14375163 70.76747416 80.13798523 70.74981689 C82.00229439 70.71884918 82.00229439 70.71884918 83.90426636 70.68725586 C85.06509232 70.68695374 86.22591827 70.68665161 87.42192078 70.68634033 C88.95081184 70.67301666 88.95081184 70.67301666 90.5105896 70.65942383 C94.06518482 71.26938338 95.73319469 72.67470136 98.31376648 75.14044189 C100.45115971 79.41522836 99.54074477 85.08781409 99.55400085 89.83404541 C99.56368209 91.934631 99.59469332 94.03422764 99.62626648 96.13458252 C99.63279934 97.4763736 99.6380487 98.81817166 99.64189148 100.15997314 C99.65123718 101.37789551 99.66058289 102.59581787 99.67021179 103.85064697 C99.27782038 107.47220467 98.561477 109.2959014 96.31376648 112.14044189 C93.05628429 114.22687648 90.45253951 114.38441877 86.62724304 114.36749268 C85.4863623 114.36734161 84.34548157 114.36719055 83.17002869 114.36703491 C81.94386841 114.35671234 80.71770813 114.34638977 79.45439148 114.33575439 C78.19487671 114.3329245 76.93536194 114.3300946 75.63768005 114.32717896 C72.29702746 114.31788311 68.95664979 114.29992773 65.61607361 114.277771 C62.20413076 114.25727397 58.79215946 114.24816901 55.38017273 114.23809814 C48.691285 114.21604093 42.00256341 114.18151235 35.31376648 114.14044189 C35.31376648 122.06044189 35.31376648 129.98044189 35.31376648 138.14044189 C37.62014099 138.11425781 39.9265155 138.08807373 42.30278015 138.06109619 C49.92619153 137.97821792 57.54962291 137.92300664 65.17336559 137.88138103 C69.79535963 137.85529606 74.41689179 137.81991849 79.03862 137.76324463 C83.49958136 137.708885 87.96009871 137.67901308 92.42136574 137.66605568 C94.12265831 137.65682282 95.82392679 137.63879277 97.52503014 137.61179161 C99.90981263 137.57544685 102.2927649 137.57049852 104.67778015 137.57281494 C105.73082588 137.54585037 105.73082588 137.54585037 106.80514526 137.51834106 C110.63657864 137.55856121 112.20603471 138.05365855 115.22851562 140.48841858 C119.56651806 146.00549274 118.53578009 152.59250086 118.55400085 159.28179932 C118.56368554 161.43494611 118.594711 163.58712922 118.62626648 165.74005127 C118.63279937 167.11960292 118.63804872 168.49916137 118.64189148 169.87872314 C118.65123718 171.12693848 118.66058289 172.37515381 118.67021179 173.66119385 C118.27157648 177.55225678 117.49120551 179.89475247 115.31376648 183.14044189 C111.93331159 184.82782299 109.17311563 185.39099615 105.41825867 185.39440918 C103.97996704 185.40286865 103.97996704 185.40286865 102.51261902 185.41149902 C100.95239014 185.40542633 100.95239014 185.40542633 99.36064148 185.39923096 C98.25603577 185.4027356 97.15143005 185.40624023 96.01335144 185.40985107 C92.36342579 185.4186508 88.71369409 185.41282531 85.06376648 185.40606689 C82.52698225 185.40741405 79.99019827 185.409355 77.45341492 185.41186523 C72.13730675 185.41481412 66.82126805 185.41071732 61.50517273 185.40118408 C55.3652081 185.39030034 49.2253763 185.39382623 43.08541489 185.40483689 C37.17100166 185.41501726 31.2566296 185.41392595 25.34220886 185.40807343 C22.82878094 185.40673868 20.31534963 185.40837853 17.80192566 185.41303253 C14.29015607 185.41810798 10.77864203 185.41037287 7.26689148 185.39923096 C6.22673889 185.40327942 5.1865863 185.40732788 4.11491394 185.41149902 C3.15605286 185.40585937 2.19719177 185.40021973 1.20927429 185.39440918 C-0.03508392 185.3932781 -0.03508392 185.3932781 -1.30458069 185.39212418 C-4.20922893 185.08517411 -6.13562388 184.59606137 -8.68623352 183.14044189 C-11.62165614 178.74738081 -12.0637724 175.17339306 -12.07391357 169.96073914 C-12.07929911 169.26085296 -12.08468465 168.56096679 -12.09023339 167.83987194 C-12.10448168 165.50685626 -12.09741735 163.17441048 -12.09028625 160.84136963 C-12.09599137 159.16388494 -12.10295618 157.48640414 -12.11108398 155.80892944 C-12.12901209 151.2615173 -12.12784801 146.71429815 -12.1221416 142.1668613 C-12.11905014 138.36943583 -12.12514153 134.57204745 -12.13118035 130.77462727 C-12.14522198 121.81751387 -12.14366647 112.86049585 -12.13227844 103.90338135 C-12.12078919 94.66241657 -12.13488724 85.42174174 -12.16167492 76.18081516 C-12.18381986 68.24435521 -12.19047227 60.30798635 -12.18459851 52.37149769 C-12.18122584 47.63232894 -12.18366486 42.89334619 -12.20084953 38.15420341 C-12.21629809 33.69960869 -12.21238655 29.24544444 -12.19354439 24.79086685 C-12.18985311 23.15621715 -12.19298266 21.52153569 -12.20343018 19.88691521 C-12.2166054 17.65516569 -12.20512561 15.42484873 -12.18743896 13.19316101 C-12.18722968 11.94455009 -12.1870204 10.69593916 -12.18680477 9.40949154 C-11.59200518 5.52507069 -10.4647307 3.87452074 -7.68623352 1.14044189 C-4.80717717 0.18075644 -2.99095356 0.01062349 0 0 Z " fill="#FEFEFE" transform="translate(787.6862335205078,278.85955810546875)"/>
<path d="M0 0 C2.15506748 -0.00218641 4.30962258 -0.02036233 6.46459961 -0.03930664 C7.84285308 -0.04224108 9.22110896 -0.04422554 10.59936523 -0.04516602 C11.84645264 -0.0492749 13.09354004 -0.05338379 14.37841797 -0.05761719 C18.49150008 0.24064946 21.2841003 0.8462083 24.34434509 3.68379211 C26.46060123 7.50902244 26.14299554 11.14180128 26.11303711 15.44506836 C26.11840988 16.38222687 26.12378265 17.31938538 26.12931824 18.28494263 C26.13910021 20.3201542 26.14203913 22.3554075 26.13896179 24.39064026 C26.13448128 27.62053235 26.14849446 30.84987716 26.1673584 34.07971191 C26.20416628 40.94823313 26.21783798 47.81669745 26.22827148 54.68530273 C26.24037835 62.61989425 26.26214587 70.55422034 26.30827332 78.48869324 C26.32175847 81.65480216 26.31768627 84.82056838 26.31286621 87.98669434 C26.34660322 100.27875885 26.84032787 111.48183496 32.66577148 122.62280273 C33.14916992 123.57026367 33.63256836 124.51772461 34.13061523 125.49389648 C36.82082703 130.02581807 39.61109021 133.43061651 44.04077148 136.31030273 C44.7587793 136.78725586 45.47678711 137.26420898 46.21655273 137.75561523 C54.78992151 142.63563541 63.08526536 143.6882489 72.72827148 142.18530273 C82.92384457 139.38250617 90.61795155 132.96980671 96.02514648 124.04467773 C100.89155561 114.80555315 101.87621012 105.66955565 101.87011719 95.38208008 C101.87532883 93.94418877 101.87532883 93.94418877 101.88064575 92.47724915 C101.88796954 90.40604602 101.89333281 88.33483522 101.89693642 86.26362228 C101.90413196 82.98514256 101.9198189 79.70680988 101.9382782 76.42837524 C101.99062246 67.11071707 102.03876734 57.79314409 102.05419922 48.4753418 C102.06426995 42.76776503 102.09356186 37.06056571 102.13551903 31.35313797 C102.14783678 29.18025183 102.15294888 27.00731245 102.1507206 24.83439255 C102.14837235 21.79909514 102.17049498 18.76488671 102.19824219 15.72973633 C102.18834007 14.3846122 102.18834007 14.3846122 102.17823792 13.01231384 C102.23976842 8.91727982 102.40363591 6.71897136 104.57389832 3.15127563 C108.34937507 -0.29403509 112.22406159 0.01196065 117.06420898 -0.01782227 C118.13875839 -0.02637238 118.13875839 -0.02637238 119.23501587 -0.03509521 C120.74967986 -0.04453263 122.26436426 -0.0510742 123.77905273 -0.05493164 C126.08801351 -0.06463316 128.39608217 -0.09566502 130.70483398 -0.12719727 C132.17878705 -0.13372831 133.65274646 -0.13897839 135.12670898 -0.14282227 C135.81332611 -0.15516907 136.49994324 -0.16751587 137.20736694 -0.18023682 C141.57050706 -0.1601112 144.31955049 0.42432148 147.72827148 3.18530273 C151.33001858 7.7306629 151.1554944 11.84377097 151.11645508 17.38745117 C151.12434052 18.76673042 151.12434052 18.76673042 151.13238525 20.1738739 C151.14558605 23.21431489 151.13683801 26.25423136 151.12670898 29.29467773 C151.12873176 31.42157084 151.1316449 33.54846326 151.13540649 35.675354 C151.1398317 40.14081401 151.13340004 44.60609412 151.11938477 49.0715332 C151.10241758 54.74998451 151.11205316 60.42800647 151.13010216 66.1064415 C151.14104173 70.50613523 151.13744537 74.90573053 151.12971878 79.30542755 C151.12773821 81.39585675 151.13009931 83.48629534 151.13715744 85.57671356 C151.17883134 101.40875871 150.41115736 116.87866309 144.60327148 131.81030273 C144.30251709 132.59679199 144.0017627 133.38328125 143.69189453 134.19360352 C135.15932147 155.65201545 119.87022955 172.94510247 98.81811523 182.90405273 C87.53993754 187.58071807 77.15843909 189.36532731 65.04077148 189.37280273 C64.01532227 189.38504883 62.98987305 189.39729492 61.93334961 189.40991211 C39.5783885 189.4522778 21.42092011 180.69278736 5.72827148 165.18530273 C4.72666992 164.29198242 4.72666992 164.29198242 3.70483398 163.38061523 C-13.03397082 148.15663439 -19.94656344 123.01753325 -21.27172852 101.18530273 C-21.49262624 93.96164344 -21.48583425 86.73202096 -21.51000977 79.50561523 C-21.51408529 78.47385036 -21.51816082 77.44208549 -21.52235985 76.37905502 C-21.54309715 70.93328815 -21.55746007 65.48754567 -21.56689453 60.04174805 C-21.57802441 54.42279342 -21.61253438 48.80422764 -21.65206623 43.18541145 C-21.67816849 38.85315198 -21.68657992 34.52098705 -21.69017601 30.18865585 C-21.69504662 28.11619265 -21.70667407 26.0437338 -21.725214 23.97134781 C-21.74950282 21.08026797 -21.74866099 18.1902224 -21.74169922 15.29907227 C-21.75450928 14.44600998 -21.76731934 13.59294769 -21.78051758 12.71403503 C-21.74487621 8.6574585 -21.58188028 6.67406123 -19.35565186 3.16581726 C-14.33503733 -1.60566344 -6.53526578 -0.00074391 0 0 Z " fill="#FEFDFD" transform="translate(414.271728515625,278.814697265625)"/>
<path d="M0 0 C0.97373062 -0.00145523 1.94746124 -0.00291046 2.95069885 -0.00440979 C5.00402832 -0.00275447 7.05737067 0.00876558 9.1105957 0.02954102 C12.24028698 0.05846787 15.3682796 0.050147 18.49804688 0.03710938 C20.49870609 0.04334838 22.49935999 0.05174059 24.5 0.0625 C25.42936874 0.05956436 26.35873749 0.05662872 27.31626892 0.05360413 C32.89271251 0.13388727 36.97847759 0.61707166 41.81640625 3.49609375 C46.27529145 8.65352782 46.38757827 12.83369416 46.32434082 19.32653809 C46.33058078 20.31156736 46.33682075 21.29659663 46.3432498 22.31147528 C46.35919468 25.60958693 46.34656927 28.90696108 46.33398438 32.20507812 C46.3394048 34.57058646 46.34652701 36.93609141 46.35522461 39.30158997 C46.37347008 45.72507048 46.36638517 52.14829421 46.35370827 58.57177925 C46.34659738 62.58372602 46.34793812 66.59563994 46.35166931 70.60758972 C46.35228224 71.2739065 46.35289518 71.94022329 46.35352668 72.62673149 C46.3548056 73.98040491 46.35610246 75.33407832 46.35741705 76.68775171 C46.36881913 89.37669705 46.35571502 102.06552675 46.33421558 114.75445312 C46.31634489 125.63860609 46.31944911 136.5225884 46.33789062 147.40673828 C46.35930395 160.05073496 46.36772053 172.69463032 46.35544157 185.3386426 C46.35416739 186.68729431 46.35290991 188.03594604 46.35166931 189.38459778 C46.35105221 190.04813415 46.35043511 190.71167053 46.34979931 191.39531407 C46.34634777 196.06786892 46.35236614 200.74034005 46.36158752 205.41288757 C46.37313489 211.70353088 46.36514015 217.99385164 46.3420105 224.28446007 C46.33671752 226.59434664 46.33824718 228.90426031 46.34706116 231.21413612 C46.35797648 234.36500809 46.34430054 237.51484365 46.32434082 240.66564941 C46.33326371 241.58179819 46.34218659 242.49794696 46.35137987 243.44185781 C46.28379819 248.93433711 45.54783528 252.18008238 41.81640625 256.49609375 C36.16062566 259.86181459 30.97330109 259.950135 24.5 259.9296875 C23.52531265 259.93492935 22.55062531 259.9401712 21.54640198 259.9455719 C19.49489288 259.95196948 17.44334698 259.95068458 15.3918457 259.94213867 C12.25991504 259.93361011 9.12979858 259.96245218 5.99804688 259.99414062 C3.99869846 259.99575243 1.99934683 259.9951755 0 259.9921875 C-0.93139297 260.00342148 -1.86278595 260.01465546 -2.82240295 260.02622986 C-8.59502232 259.96454462 -11.74460635 259.25599703 -16.18359375 255.49609375 C-19.24585744 252.01144886 -20.30634779 249.03389925 -20.31781483 244.42677593 C-20.32227267 243.59545483 -20.32673051 242.76413373 -20.33132344 241.90762109 C-20.33113908 240.99440663 -20.33095472 240.08119218 -20.33076477 239.14030457 C-20.33444146 238.17008922 -20.33811815 237.19987388 -20.34190625 236.20025808 C-20.35295914 232.93452548 -20.35678963 229.66882469 -20.3605957 226.40307617 C-20.36685905 224.06756997 -20.37350574 221.73206477 -20.38050842 219.39656067 C-20.39792804 213.0411697 -20.40847245 206.68578627 -20.41671395 200.33037734 C-20.42186123 196.3621754 -20.42793704 192.39397581 -20.43422508 188.42577553 C-20.45109452 177.43936422 -20.46573018 166.45295499 -20.47297382 155.46653271 C-20.47488371 152.61595343 -20.47680405 149.76537417 -20.47875977 146.91479492 C-20.47924351 146.20629897 -20.47972725 145.49780302 -20.48022565 144.7678375 C-20.48852819 133.28748077 -20.51386969 121.80722815 -20.54634044 110.3269169 C-20.57940458 98.54076151 -20.59742194 86.75465906 -20.60061806 74.96845704 C-20.60278361 68.35071544 -20.61198136 61.73310842 -20.63707924 55.11540794 C-20.66030299 48.89132583 -20.66461602 42.6675174 -20.65431786 36.44340324 C-20.65382103 34.15769289 -20.6601845 31.87196931 -20.6738739 29.5862999 C-20.69150596 26.46814733 -20.68452899 23.35098627 -20.67134094 20.23283386 C-20.68231019 19.32631158 -20.69327943 18.41978929 -20.70458108 17.48579663 C-20.6483769 11.98946646 -19.84703508 8.85532892 -16.18359375 4.49609375 C-11.05359419 -0.10485214 -6.5567159 -0.0790837 0 0 Z " fill="#FEFEFE" transform="translate(525.18359375,552.50390625)"/>
<path d="M0 0 C1.10619186 -0.00426498 2.21238373 -0.00852997 3.35209656 -0.01292419 C5.18097412 -0.01224442 5.18097412 -0.01224442 7.04679871 -0.0115509 C8.32653061 -0.01490952 9.60626251 -0.01826813 10.92477417 -0.02172852 C14.44141299 -0.03057936 17.95802749 -0.03290713 21.47467637 -0.0335443 C24.40948071 -0.03449292 27.34427937 -0.03817081 30.27908152 -0.0417164 C37.204261 -0.04986562 44.12942748 -0.05230026 51.05461121 -0.05158997 C58.19822125 -0.05098952 65.3417557 -0.06153359 72.48534662 -0.07733363 C78.61705277 -0.09041234 84.74873424 -0.0957737 90.88045424 -0.09513456 C94.54317135 -0.0948796 98.20582134 -0.09772924 101.86852455 -0.10831261 C105.95534548 -0.11979831 110.04199736 -0.11524473 114.12882996 -0.10920715 C115.94859848 -0.11763641 115.94859848 -0.11763641 117.80513 -0.12623596 C119.47710701 -0.11994423 119.47710701 -0.11994423 121.18286133 -0.11352539 C122.63217151 -0.11434254 122.63217151 -0.11434254 124.11076069 -0.1151762 C127.89073993 0.23703043 130.7533547 1.19292506 133.56730652 3.76676941 C135.28978841 7.12344518 135.23034754 10.31644857 135.21549988 14.00480652 C135.22074173 14.76414993 135.22598358 15.52349335 135.23138428 16.30584717 C135.2377953 17.90869425 135.23647935 19.51158844 135.22795105 21.11442566 C135.2194456 23.55986303 135.24820347 26.00295945 135.279953 28.44816589 C135.28156538 30.00871207 135.28098679 31.56926237 135.27799988 33.12980652 C135.28923386 33.85703415 135.30046783 34.58426178 135.31204224 35.33352661 C135.26287589 38.93644608 134.8696613 40.99386931 132.93840027 44.07145691 C129.94375866 46.93523339 127.56537557 47.25918865 123.58586121 47.24723816 C122.74521622 47.24716263 121.90457123 47.2470871 121.03845215 47.24700928 C120.13523727 47.24184799 119.2320224 47.23668671 118.30143738 47.23136902 C117.37344833 47.22995407 116.44545929 47.22853912 115.48934937 47.2270813 C112.52433555 47.22148214 109.55939714 47.20892981 106.59440613 47.19621277 C104.58464159 47.19119766 102.57487588 47.18663477 100.56510925 47.18254089 C95.63734581 47.17151298 90.70963875 47.15424894 85.78190613 47.13371277 C85.7855933 47.79816721 85.78928047 48.46262165 85.79307938 49.14721107 C85.88145503 65.32227965 85.94762761 81.49727165 85.98915482 97.67252541 C86.00977137 105.49479981 86.03787446 113.31691296 86.08366394 121.13908386 C86.12355968 127.95768956 86.14934554 134.77617846 86.15826011 141.59489763 C86.16347029 145.20469967 86.17569669 148.8141676 86.20482635 152.42386246 C86.23709821 156.455714 86.2378638 160.48698637 86.23600769 164.51896667 C86.25038879 165.71299103 86.2647699 166.90701538 86.27958679 168.13722229 C86.24820836 174.42635729 86.08681914 178.38776344 81.78190613 183.13371277 C78.34913465 185.7487101 74.4621086 185.42372909 70.31315613 185.39933777 C69.59583313 185.40125122 68.87851013 185.40316467 68.13945007 185.40513611 C66.62654773 185.40649389 65.11363358 185.40282586 63.60075378 185.39445496 C61.28977703 185.38374923 58.97957756 185.39436355 56.66862488 185.40715027 C55.19596692 185.4058286 53.72330944 185.40326606 52.25065613 185.39933777 C51.56201477 185.40338623 50.87337341 185.40743469 50.16386414 185.41160583 C43.5862193 185.34756045 43.5862193 185.34756045 40.78190613 183.13371277 C36.77753532 177.33645222 37.38025519 171.28013195 37.44132996 164.51896667 C37.44089188 163.25012634 37.4404538 161.98128601 37.44000244 160.67399597 C37.43914409 157.20739101 37.45674354 153.74109946 37.47772431 150.27456713 C37.49651802 146.64709608 37.49824367 143.01961732 37.50180054 139.3921051 C37.51111312 132.5286214 37.53571615 125.6652816 37.56584901 118.80186117 C37.59941759 110.98568793 37.61588519 103.16950772 37.63093531 95.35328031 C37.66226649 79.28000699 37.71501156 63.20687826 37.78190613 47.13371277 C36.53578552 47.1441864 35.28966492 47.15466003 34.00578308 47.16545105 C29.3746275 47.20170021 24.74348443 47.22463121 20.11222839 47.24357605 C18.10927724 47.2536224 16.10634071 47.26726186 14.10343933 47.28459167 C11.22148525 47.3088999 8.33972541 47.32020963 5.45768738 47.32902527 C4.56479507 47.33934784 3.67190277 47.34967041 2.75195312 47.36030579 C-1.65375128 47.36109762 -5.25751659 47.31818073 -9.21809387 45.13371277 C-11.94348399 41.68756258 -11.54120006 37.46690739 -11.55403137 33.26261902 C-11.56068817 32.5032756 -11.56734497 31.74393219 -11.57420349 30.96157837 C-11.58430874 29.35874344 -11.58902117 27.75586663 -11.58869934 26.15299988 C-11.5930733 23.70771176 -11.62941376 21.26422873 -11.66731262 18.81925964 C-11.67318124 17.25871891 -11.67715033 15.69816965 -11.67903137 14.13761902 C-11.6934024 13.41039139 -11.70777344 12.68316376 -11.72257996 11.93389893 C-11.67884596 7.04796696 -10.69835713 4.55763354 -7.21809387 1.13371277 C-4.66241499 -0.14412667 -2.86229517 0.00497035 0 0 Z " fill="#FEFDFD" transform="translate(606.2180938720703,278.8662872314453)"/>
<path d="M0 0 C12.22860535 7.2818145 21.01702388 16.80059714 25.39355469 30.50634766 C26.4636908 34.90665776 26.53072719 39.23901198 26.5 43.75 C26.49500488 44.71574951 26.49000977 45.68149902 26.48486328 46.67651367 C26.16102719 60.00181061 20.81973547 70.81184361 11.875 80.625 C2.30242974 89.7316487 -9.72751972 94.59855762 -22.8125 94.4375 C-23.6876123 94.42920166 -24.56272461 94.42090332 -25.46435547 94.41235352 C-37.36454473 94.1032434 -45.68806779 90.25985826 -55 83 C-55.886875 82.401875 -56.77375 81.80375 -57.6875 81.1875 C-68.6918188 70.77800924 -72.92699205 57.30196144 -73.375 42.5625 C-73.16507967 29.52119927 -67.09945211 17.30625784 -58 8 C-41.2247297 -5.22833274 -19.67257171 -10.92309227 0 0 Z " fill="#F0323E" transform="translate(289,327)"/>
</svg>
