<?xml version="1.0" encoding="UTF-8"?>
<svg version="1.1" xmlns="http://www.w3.org/2000/svg" width="1080" height="1080">
<path d="M0 0 C4.35943227 0.01024298 8.71880889 -0.00293051 13.07823303 -0.01297333 C20.70195628 -0.02735599 28.32556603 -0.02702154 35.94929436 -0.01678469 C47.28636664 -0.00160336 58.62334385 -0.0094163 69.96041557 -0.02161792 C90.21286533 -0.04264466 110.46526452 -0.04086977 130.71771905 -0.02930227 C148.44126582 -0.01922922 166.16479408 -0.01661828 183.88834313 -0.02139284 C185.65367838 -0.02185116 185.65367838 -0.02185116 187.45467697 -0.02231872 C192.23238498 -0.02356413 197.01009298 -0.02483774 201.78780098 -0.02615778 C246.58143624 -0.03838629 291.37503934 -0.02731181 336.16866964 -0.00577019 C375.94135391 0.01321139 415.71398694 0.01151285 455.48667076 -0.00761416 C500.1998078 -0.02904534 544.91291643 -0.03751896 589.62605789 -0.0251651 C594.39492347 -0.02388229 599.16378906 -0.02263092 603.93265465 -0.02139284 C605.10682039 -0.02107654 606.28098613 -0.02076023 607.49073265 -0.02043433 C625.20058848 -0.01588967 642.91042374 -0.0211958 660.62027672 -0.03131106 C680.76267215 -0.04275853 700.90500922 -0.0398665 721.0473974 -0.01818808 C732.31223105 -0.00646324 743.57693824 -0.0056468 754.84176854 -0.02077278 C762.37541861 -0.02977073 769.90896773 -0.02410897 777.4426029 -0.0067537 C781.72878817 0.00272013 786.01472302 0.00610198 790.30090001 -0.00837763 C807.16646328 -0.06117414 823.52006294 -0.03513786 839.91049889 4.51387022 C840.58225993 4.69414619 841.25402097 4.87442215 841.94613841 5.06016103 C875.03315883 14.03318803 901.48546882 37.58357523 918.40659264 66.77168272 C923.42665174 75.70231714 927.19390241 84.62009512 929.91049889 94.51387022 C930.08946014 95.15324419 930.2684214 95.79261817 930.45280573 96.45136712 C934.8747546 112.94627366 934.48155256 129.67623051 934.4243691 146.60337133 C934.41412612 150.9628036 934.42729961 155.32218021 934.43734244 159.68160436 C934.45172509 167.30532761 934.45139064 174.92893735 934.44115379 182.55266569 C934.42597246 193.88973797 934.4337854 205.22671518 934.44598702 216.5637869 C934.46701376 236.81623666 934.46523888 257.06863584 934.45367137 277.32109038 C934.44359833 295.04463715 934.44098739 312.76816541 934.44576195 330.49171446 C934.44622026 332.25704971 934.44622026 332.25704971 934.44668783 334.0580483 C934.44793324 338.83575631 934.44920684 343.61346431 934.45052688 348.3911723 C934.46275539 393.18480757 934.45168092 437.97841067 934.4301393 482.77204097 C934.41115771 522.54472524 934.41285626 562.31735827 934.43198326 602.09004209 C934.45341444 646.80317913 934.46188806 691.51628776 934.44953421 736.22942922 C934.44825139 740.9982948 934.44700003 745.76716039 934.44576195 750.53602598 C934.44544564 751.71019172 934.44512933 752.88435746 934.44480344 754.09410398 C934.44025877 771.80395981 934.4455649 789.51379507 934.45568016 807.22364805 C934.46712764 827.36604348 934.46423561 847.50838055 934.44255719 867.65076873 C934.43083235 878.91560238 934.4300159 890.18030957 934.44514188 901.44513987 C934.45413984 908.97878994 934.44847807 916.51233906 934.43112281 924.04597422 C934.42164897 928.33215949 934.41826713 932.61809435 934.43274674 936.90427134 C934.56325817 978.64802406 925.5641231 1013.93735453 895.53549889 1044.38887022 C888.83139016 1050.9923806 882.08169328 1056.77707283 873.91049889 1061.51387022 C873.21231041 1061.9218585 872.51412193 1062.32984678 871.79477623 1062.75019834 C863.44624995 1067.55145065 854.96728946 1071.81765958 845.84799889 1074.95137022 C845.21418297 1075.1739752 844.58036705 1075.39658018 843.92734459 1075.62593076 C825.45601069 1081.51254926 806.29456654 1080.9499828 787.1478113 1080.90547424 C782.80081425 1080.89871382 778.45385239 1080.90945573 774.10686305 1080.91787008 C766.50181756 1080.93020006 758.89683379 1080.93146534 751.29178169 1080.92531965 C739.98232896 1080.91620498 728.67293302 1080.92427956 717.36348462 1080.93561089 C697.16018117 1080.95525462 676.9569034 1080.95762959 656.75359267 1080.95241569 C639.07060835 1080.9478546 621.38763419 1080.94846258 603.70465019 1080.95425604 C601.3306438 1080.95501291 598.9566374 1080.95576889 596.58263101 1080.95652398 C593.0050002 1080.9576692 589.4273694 1080.95881908 585.8497386 1080.95998322 C552.59758753 1080.97068485 519.34543984 1080.97541696 486.09328774 1080.96751306 C484.21395554 1080.9670673 484.21395554 1080.9670673 482.29665705 1080.96661254 C472.12300473 1080.96416372 461.94935245 1080.96155207 451.77570018 1080.9589284 C412.09730971 1080.94882716 372.41896157 1080.95718044 332.74057701 1080.98042295 C288.1358427 1081.00650906 243.53113386 1081.01933985 198.92639163 1081.0122352 C194.16813131 1081.01151917 189.40987098 1081.01084478 184.65161064 1081.01019476 C182.89427425 1081.00994004 182.89427425 1081.00994004 181.10143611 1081.00968018 C163.43525435 1081.00737956 145.76909629 1081.01534291 128.10291985 1081.02848623 C108.00591739 1081.0434116 87.90897038 1081.0442217 67.8119691 1081.02641532 C56.57422489 1081.01686764 45.33661009 1081.01825584 34.09887457 1081.03565001 C26.58066244 1081.04617005 19.06254847 1081.04199629 11.54434594 1081.02616997 C7.26857925 1081.01757159 2.99306536 1081.01503076 -1.28268796 1081.03043929 C-43.61676829 1081.17216288 -78.8125388 1072.58770937 -109.77700111 1042.32637022 C-117.0540054 1035.01076113 -122.96101184 1027.45100041 -128.08950111 1018.51387022 C-128.48604896 1017.83324522 -128.88259682 1017.15262022 -129.29116127 1016.45137022 C-134.84618565 1006.80818469 -139.13590577 997.26892351 -142.08950111 986.51387022 C-142.26846741 985.8744912 -142.4474337 985.23511219 -142.63182321 984.57635806 C-147.05368743 968.0814187 -146.66055485 951.35152726 -146.60337133 934.4243691 C-146.59312834 930.06493683 -146.60630184 925.70556022 -146.61634466 921.34613607 C-146.63072732 913.72241283 -146.63039287 906.09880308 -146.62015602 898.47507475 C-146.60497469 887.13800246 -146.61278763 875.80102525 -146.62498925 864.46395353 C-146.64601599 844.21150377 -146.6442411 823.95910459 -146.6326736 803.70665006 C-146.62260055 785.98310329 -146.61998961 768.25957503 -146.62476417 750.53602598 C-146.62506971 749.35913581 -146.62537525 748.18224564 -146.62569005 746.96969213 C-146.62693546 742.19198412 -146.62820907 737.41427612 -146.62952911 732.63656813 C-146.64175762 687.84293287 -146.63068314 643.04932976 -146.60914152 598.25569946 C-146.59015994 558.4830152 -146.59185848 518.71038216 -146.61098549 478.93769834 C-146.63241666 434.22456131 -146.64089028 389.51145267 -146.62853643 344.79831121 C-146.62725362 340.02944563 -146.62600225 335.26058005 -146.62476417 330.49171446 C-146.62444786 329.31754871 -146.62413156 328.14338297 -146.62380566 326.93363645 C-146.619261 309.22378062 -146.62456713 291.51394536 -146.63468239 273.80409238 C-146.64612986 253.66169695 -146.64323783 233.51935988 -146.62155941 213.3769717 C-146.60983457 202.11213805 -146.60901813 190.84743087 -146.62414411 179.58260056 C-146.63314206 172.04895049 -146.6274803 164.51540138 -146.61012503 156.98176621 C-146.6006512 152.69558094 -146.59726935 148.40964609 -146.61174896 144.12346909 C-146.74374995 101.90328829 -137.48040139 66.86308878 -107.15200111 36.07637022 C-91.90960287 21.07964357 -72.74088085 10.12246491 -52.08950111 4.51387022 C-51.45350589 4.33659582 -50.81751067 4.15932142 -50.16224286 3.97667507 C-33.66021815 -0.44329275 -16.93376415 -0.05720583 0 0 Z " fill="#FEFEFE" transform="translate(146.0895011126995,-0.5138702169060707)"/>
<path d="M0 0 C0.9104306 -0.00807175 1.82086121 -0.01614349 2.75888062 -0.02445984 C4.69063408 -0.03830779 6.6224121 -0.04902676 8.55419922 -0.05688477 C11.49104206 -0.07402963 14.42673914 -0.11790071 17.36328125 -0.16210938 C19.24217924 -0.17224245 21.12108679 -0.18075662 23 -0.1875 C23.87113434 -0.20500809 24.74226868 -0.22251617 25.63980103 -0.24055481 C32.73315174 -0.21566661 37.89053508 1.66637771 43.296875 6.2890625 C49.06904924 12.89398124 53.85454062 19.9266324 58.61132812 27.27050781 C60.69832211 30.46117009 62.85813738 33.60043786 65.0234375 36.73828125 C65.46945312 37.38579346 65.91546875 38.03330566 66.375 38.70043945 C71.17452266 45.65692992 76.01220973 52.58695198 80.84301758 59.52172852 C86.7510647 68.01012485 92.59582132 76.54055398 98.42529297 85.08300781 C100.23642939 87.73277783 102.0550718 90.3773168 103.87550354 93.02070618 C108.85378358 100.25014798 113.80699715 107.49638912 118.75 114.75 C119.44005127 115.76235718 120.13010254 116.77471436 120.84106445 117.81774902 C122.52698928 120.29116861 124.21277732 122.7646813 125.8984375 125.23828125 C125.90202003 124.36528916 125.90202003 124.36528916 125.90567493 123.47466087 C125.96485488 109.3022873 126.04042403 95.13007998 126.13415241 80.95789146 C126.17908543 74.10426752 126.21850575 67.25069525 126.24487305 60.39697266 C126.27033242 53.78329717 126.31125398 47.16983396 126.36162376 40.55629349 C126.37831421 38.03255702 126.38981488 35.50878075 126.39605141 32.9849968 C126.40566846 29.45117804 126.43370059 25.91795079 126.46606445 22.38427734 C126.46462936 21.33986481 126.46319427 20.29545227 126.4617157 19.21939087 C126.53167597 13.82115496 126.8069878 9.8720619 129.8984375 5.23828125 C133.68123439 1.82453771 136.08219337 0.12182113 141.14526367 0.07714844 C142.02345261 0.06754089 142.90164154 0.05793335 143.80644226 0.04803467 C144.75848038 0.04378479 145.71051849 0.03953491 146.69140625 0.03515625 C147.67079666 0.02945618 148.65018707 0.0237561 149.65925598 0.0178833 C151.73644935 0.008424 153.8136578 0.00189564 155.89086914 -0.00195312 C159.05577184 -0.01162655 162.22001632 -0.04262802 165.38476562 -0.07421875 C167.40364198 -0.08075204 169.42252298 -0.08600123 171.44140625 -0.08984375 C172.38332321 -0.10219055 173.32524017 -0.11453735 174.29570007 -0.1272583 C179.94534105 -0.10829176 183.91109616 0.52079617 188.8984375 3.23828125 C192.92171223 7.36743163 194.01841008 10.73783692 194.03265858 16.37820816 C194.03711642 17.19983672 194.04157426 18.02146529 194.04616719 18.86799169 C194.04598283 19.76525621 194.04579847 20.66252074 194.04560852 21.5869751 C194.04928521 22.54438308 194.0529619 23.50179105 194.05675 24.48821139 C194.06778606 27.70471143 194.07163054 30.92117917 194.07543945 34.13769531 C194.08170409 36.44054772 194.08835089 38.74339911 194.09535217 41.04624939 C194.11276013 47.30874313 194.12331312 53.57122925 194.1315577 59.83374119 C194.1367077 63.74551336 194.14278339 67.65728315 194.14906883 71.56905365 C194.16593642 82.40366476 194.18057179 93.23827295 194.18781757 104.07289505 C194.18972739 106.88306937 194.19164774 109.69324368 194.19360352 112.50341797 C194.19408726 113.20185195 194.194571 113.90028593 194.1950694 114.61988458 C194.20336966 125.93393095 194.22870801 137.24787159 194.26118419 148.5618718 C194.29426979 160.18308863 194.31193495 171.80424628 194.31546181 183.42551017 C194.31781391 189.94829737 194.32679562 196.47091737 194.35192299 202.99365997 C194.37517995 209.12993967 194.37944631 215.26594178 194.36916161 221.4022541 C194.36866558 223.65326167 194.37500547 225.90428279 194.38871765 228.15524864 C194.40640484 231.23104969 194.39934546 234.30585108 194.38618469 237.38165283 C194.39715394 238.26999447 194.40812318 239.15833611 194.41942483 240.07359719 C194.35893172 245.93940568 193.15446613 250.31423474 189.8984375 255.23828125 C186.35635437 258.66967428 182.71457074 259.34532667 177.89941406 259.4152832 C177.12470764 259.42811844 176.35000122 259.44095367 175.55181885 259.45417786 C174.30800446 259.46525826 174.30800446 259.46525826 173.0390625 259.4765625 C172.17585388 259.48463425 171.31264526 259.49270599 170.42327881 259.50102234 C168.59763582 259.51483486 166.77196731 259.52556965 164.94628906 259.53344727 C163.08813864 259.54495937 161.23002108 259.56539903 159.37207031 259.5949707 C156.67750736 259.63783657 153.98392494 259.65384259 151.2890625 259.6640625 C150.05739349 259.69032463 150.05739349 259.69032463 148.80084229 259.71711731 C141.92574374 259.69157027 136.87149845 257.81176333 131.6550293 253.29638672 C126.56218374 247.26649179 122.0781684 240.93443085 117.7109375 234.36328125 C116.96589137 233.25325848 116.22011154 232.14372784 115.47363281 231.03466797 C113.97865637 228.812602 112.4867772 226.58856939 110.99658203 224.36328125 C108.07450695 220.01110984 105.11475342 215.68536593 102.1484375 211.36328125 C101.09885646 209.83079894 100.04937638 208.29824746 99 206.765625 C98.48856445 206.01909668 97.97712891 205.27256836 97.45019531 204.50341797 C89.45424101 192.83153879 81.47139288 181.15081496 73.50463867 169.45898438 C70.43074406 164.94874627 67.35398857 160.44052263 64.26953125 155.9375 C63.69074219 155.09251953 63.11195313 154.24753906 62.515625 153.37695312 C61.43931387 151.80628979 60.36253392 150.23594757 59.28515625 148.66601562 C56.73867261 144.95015989 54.2134632 141.2216386 51.71704102 137.47192383 C51.18635513 136.67506668 50.65566925 135.87820953 50.10890198 135.0572052 C49.7094487 134.4569603 49.30999542 133.85671539 48.8984375 133.23828125 C48.89789273 133.82358612 48.89734797 134.40889099 48.89678669 135.01193237 C48.88179646 149.27683967 48.83925932 163.54147014 48.76634693 177.80619812 C48.73174537 184.70465606 48.7063478 191.60291519 48.70288086 198.50146484 C48.69950804 205.16065606 48.67013825 211.8192719 48.62500572 218.47833252 C48.61202947 221.01716195 48.60772345 223.55605117 48.61228371 226.09490967 C48.61718834 229.6549659 48.59109942 233.21356099 48.55786133 236.7734375 C48.56648697 237.82001022 48.57511261 238.86658295 48.58399963 239.94487 C48.48145108 246.50949773 47.36492341 251.25491381 42.8984375 256.23828125 C37.33326757 259.704342 31.94253472 259.69196621 25.58203125 259.671875 C24.6073439 259.67711685 23.63265656 259.6823587 22.62843323 259.6877594 C20.57692413 259.69415698 18.52537823 259.69287208 16.47387695 259.68432617 C13.34194629 259.67579761 10.21182983 259.70463968 7.08007812 259.73632812 C5.08072971 259.73793993 3.08137808 259.737363 1.08203125 259.734375 C0.15063828 259.74560898 -0.7807547 259.75684296 -1.7403717 259.76841736 C-7.32969299 259.70869081 -10.81860375 259.18196405 -15.1015625 255.23828125 C-19.10525937 249.53329549 -19.67631915 245.31344353 -19.60276794 238.43943787 C-19.60830234 237.46988838 -19.61383674 236.50033889 -19.61953884 235.50140911 C-19.63312178 232.26166281 -19.61818853 229.02269 -19.60327148 225.78295898 C-19.60705548 223.45671258 -19.61255618 221.13046842 -19.61964417 218.80422974 C-19.63360464 212.49236337 -19.62242491 206.18076942 -19.60593295 199.86891818 C-19.5934869 193.93357041 -19.59769379 187.99825036 -19.60106266 182.06289399 C-19.60693712 170.30270776 -19.59278538 158.5426287 -19.56811523 146.7824707 C-19.54419018 135.37617985 -19.53711361 123.97003214 -19.54760742 112.5637207 C-19.559021 100.1354349 -19.56094169 87.70721525 -19.54650933 75.27893025 C-19.538967 68.70264823 -19.53507448 62.12642345 -19.54101372 55.55013847 C-19.54578332 49.36868557 -19.53568221 43.18743096 -19.51405907 37.00601578 C-19.50849109 34.73644365 -19.50802598 32.46685246 -19.51301193 30.19727898 C-19.51896073 27.10134571 -19.50646688 24.00601955 -19.48924255 20.91014099 C-19.4952526 20.01023813 -19.50126264 19.11033527 -19.50745481 18.18316263 C-19.45617781 13.121078 -18.92216527 9.61772313 -16.1015625 5.23828125 C-10.71270659 0.37516738 -7.08077076 0.059217 0 0 Z " fill="#F0333F" transform="translate(252.1015625,552.76171875)"/>
<path d="M0 0 C1.61275314 -0.01441132 1.61275314 -0.01441132 3.25808716 -0.02911377 C4.42572601 -0.03336365 5.59336487 -0.03761353 6.79638672 -0.04199219 C7.99536591 -0.04769226 9.19434509 -0.05339233 10.42965698 -0.05926514 C12.9734407 -0.0687278 15.51723675 -0.07525412 18.06103516 -0.07910156 C21.93918559 -0.08877517 25.81679899 -0.11977431 29.69482422 -0.15136719 C32.16617524 -0.15790033 34.63753005 -0.16314958 37.10888672 -0.16699219 C38.84212692 -0.18551239 38.84212692 -0.18551239 40.61038208 -0.20440674 C49.46490627 -0.18011852 56.40100898 1.06867255 63.09570312 7.22900391 C66.76555518 11.26839322 69.60532001 15.88835719 72.53857422 20.47363281 C73.9520638 22.64022181 75.36743998 24.80558112 76.78466797 26.96972656 C77.47544434 28.02788574 78.1662207 29.08604492 78.87792969 30.17626953 C81.53297811 34.19267908 84.29658636 38.12321123 87.10107422 42.03613281 C91.9142229 48.75909156 96.51797386 55.60423628 101.02001953 62.53955078 C101.4927832 63.26029785 101.96554687 63.98104492 102.45263672 64.72363281 C102.86852051 65.36429688 103.2844043 66.00496094 103.71289062 66.66503906 C104.79649181 68.31762064 104.79649181 68.31762064 106.85107422 69.16113281 C107.11645996 68.4325708 107.3818457 67.70400879 107.65527344 66.95336914 C108.85162912 64.1598371 110.22569039 61.95764062 111.98388672 59.48535156 C112.61746094 58.58655273 113.25103516 57.68775391 113.90380859 56.76171875 C114.58765625 55.80040039 115.27150391 54.83908203 115.97607422 53.84863281 C122.56280351 44.49691826 128.98159654 35.05098174 135.26953125 25.49584961 C150.43102437 2.5509268 150.43102437 2.5509268 158.21876526 0.55401611 C160.94207816 0.14755009 163.52753627 0.02020996 166.28051758 0 C167.34189438 -0.00960754 168.40327118 -0.01921509 169.49681091 -0.02911377 C170.63336624 -0.03336365 171.76992157 -0.03761353 172.94091797 -0.04199219 C174.70684044 -0.0505423 174.70684044 -0.0505423 176.50843811 -0.05926514 C178.99560653 -0.06870031 181.48278738 -0.07524322 183.9699707 -0.07910156 C187.77105461 -0.08882238 191.57160115 -0.11986686 195.37255859 -0.15136719 C197.79117518 -0.15789617 200.20979563 -0.16314705 202.62841797 -0.16699219 C203.76294907 -0.17933899 204.89748016 -0.19168579 206.06639099 -0.20440674 C212.79243003 -0.18544482 217.53078133 0.26926481 222.78857422 4.84863281 C224.39396698 8.34272295 223.73946017 11.53799947 222.85107422 15.16113281 C221.62969574 17.88617157 220.07299384 20.30851416 218.41357422 22.78613281 C217.96836426 23.47416992 217.5231543 24.16220703 217.06445312 24.87109375 C213.27819216 30.66560351 209.26410835 36.29491903 205.19873047 41.89550781 C202.42628504 45.72587471 199.82396267 49.66126757 197.21826172 53.60644531 C194.11995643 58.28006672 190.95007162 62.90514471 187.78857422 67.53613281 C187.14460693 68.47948486 186.50063965 69.42283691 185.8371582 70.39477539 C184.50747022 72.34222209 183.17763443 74.28956788 181.84765625 76.23681641 C179.26509677 80.0193913 176.68583944 83.80421121 174.10668945 87.58911133 C171.0229124 92.11409277 167.93716537 96.6377294 164.85107422 101.16113281 C164.24392578 102.05123047 163.63677734 102.94132813 163.01123047 103.85839844 C161.25038699 106.43907549 159.48841849 109.01898048 157.72607422 111.59863281 C156.94562744 112.74271606 156.94562744 112.74271606 156.14941406 113.90991211 C155.65650879 114.63090088 155.16360352 115.35188965 154.65576172 116.09472656 C153.95725098 117.12315674 153.95725098 117.12315674 153.24462891 118.17236328 C152.30917545 119.50736746 151.34003586 120.81933833 150.34033203 122.10693359 C147.70107814 125.18562966 147.70107814 125.18562966 146.97021484 128.9753418 C148.20541964 132.04041623 150.00291587 134.64698203 151.87451172 137.34863281 C152.28744476 137.9547641 152.70037781 138.56089539 153.12582397 139.18539429 C154.4871745 141.18105746 155.85662493 143.17102046 157.22607422 145.16113281 C158.18141974 146.5586769 159.13616466 147.95663174 160.09033203 149.35498047 C162.05123003 152.22740505 164.01498245 155.09784466 165.98095703 157.96679688 C169.81692677 163.56783259 173.62393788 169.18840938 177.43099976 174.80911255 C179.38584874 177.69445353 181.34286449 180.57832259 183.30029297 183.46191406 C183.68129654 184.02319504 184.06230011 184.58447601 184.45484924 185.1627655 C187.02672195 188.95025541 189.60378162 192.73418013 192.18310547 196.51660156 C199.35549817 207.03693385 206.49944914 217.57565905 213.57614136 228.16061401 C214.37709085 229.35831868 215.17877413 230.55553299 215.98123169 231.75222778 C217.09519251 233.414268 218.20563067 235.07866759 219.31591797 236.74316406 C219.95134521 237.69425049 220.58677246 238.64533691 221.24145508 239.62524414 C224.02751749 244.01457074 225.5019842 246.84536797 224.85107422 252.16113281 C222.93088313 255.54066913 221.58287279 256.87983256 217.9440918 258.27856445 C212.68833005 259.65074667 207.32354933 259.50571168 201.92529297 259.53222656 C200.78252396 259.54125504 199.63975494 259.55028351 198.46235657 259.55958557 C196.05102138 259.57405401 193.63964724 259.58296631 191.22827148 259.58666992 C187.56084303 259.59856061 183.89510103 259.647779 180.22802734 259.69824219 C177.87712404 259.70770827 175.52621047 259.71494242 173.17529297 259.71972656 C172.0895549 259.73925888 171.00381683 259.7587912 169.88517761 259.77891541 C161.50536516 259.72983789 154.64560031 257.7752634 148.46826172 251.89160156 C147.60587891 250.63283203 147.60587891 250.63283203 146.72607422 249.34863281 C145.98873047 248.2903125 145.25138672 247.23199219 144.49169922 246.14160156 C143.60960259 244.81603327 142.72960555 243.48906672 141.85107422 242.16113281 C140.70050011 240.44857901 139.54941725 238.73636694 138.39794922 237.02441406 C135.70323021 233.00427169 133.02739049 228.97215147 130.35888672 224.93457031 C127.1419255 220.07962168 123.88240368 215.25648741 120.59326172 210.45019531 C119.93676132 209.48953156 119.93676132 209.48953156 119.26699829 208.50946045 C117.53360283 205.97354253 115.80000461 203.43782852 114.05743408 200.90820312 C112.84924302 199.15406274 111.64658236 197.39624642 110.44482422 195.63769531 C109.75066406 194.62787598 109.05650391 193.61805664 108.34130859 192.57763672 C106.85107422 190.16113281 106.85107422 190.16113281 106.85107422 188.16113281 C103.03798407 191.61869008 100.44480983 195.56711221 97.66357422 199.84863281 C96.5996459 201.46529267 95.53446809 203.0811307 94.46826172 204.69628906 C93.89172852 205.57043457 93.31519531 206.44458008 92.72119141 207.34521484 C87.1691041 215.70523768 81.47883884 223.97325854 75.82080078 232.26171875 C74.04341187 234.87801408 72.28298138 237.50450754 70.53076172 240.13769531 C70.03906494 240.87036621 69.54736816 241.60303711 69.04077148 242.35791016 C68.16166699 243.66854104 67.28906106 244.98357024 66.42504883 246.30419922 C62.2680866 252.46349039 57.10812261 257.15586118 49.85107422 259.16113281 C45.60911207 259.60412201 41.3906447 259.60542106 37.12841797 259.59472656 C35.90957413 259.59996841 34.69073029 259.60521027 33.43495178 259.61061096 C30.8655778 259.61701771 28.29617444 259.6157117 25.72680664 259.60717773 C21.79829788 259.59865391 17.87123691 259.62747355 13.94287109 259.65917969 C11.44222049 259.66079151 8.94156731 259.66021454 6.44091797 259.65722656 C4.68291115 259.67407753 4.68291115 259.67407753 2.88938904 259.69126892 C-4.07135062 259.63180488 -8.12168427 259.18837432 -13.14892578 254.16113281 C-14.22683309 248.20814471 -13.4206216 243.95322679 -10.04736328 238.94238281 C-9.40959961 237.98412598 -8.77183594 237.02586914 -8.11474609 236.03857422 C-7.46602539 235.08901855 -6.81730469 234.13946289 -6.14892578 233.16113281 C-5.5852832 232.32114746 -5.02164063 231.48116211 -4.44091797 230.61572266 C-2.73212554 228.07968963 -1.00532283 225.55678076 0.72607422 223.03613281 C2.04917458 221.10266475 3.37208386 219.16906592 4.69482422 217.23535156 C5.37673828 216.23938965 6.05865234 215.24342773 6.76123047 214.21728516 C10.25963135 209.10128256 13.74254856 203.97477047 17.22607422 198.84863281 C18.66095146 196.73794309 20.0958474 194.62726608 21.53076172 192.51660156 C22.60148926 190.94144775 22.60148926 190.94144775 23.69384766 189.33447266 C26.54002698 185.14766427 29.38680121 180.96126059 32.23364258 176.77490234 C33.63815548 174.70950888 35.04261566 172.64407956 36.44702148 170.57861328 C39.75459384 165.71419753 43.06252851 160.85002931 46.37173462 155.98672485 C47.92797695 153.69957905 49.48401565 151.41229475 51.04003906 149.125 C52.13310262 147.51841984 53.22645922 145.91203908 54.31982422 144.30566406 C55.61666618 142.39928129 56.90950046 140.49016259 58.19726562 138.57763672 C59.18622611 137.1325923 60.19722894 135.70172621 61.25097656 134.30322266 C63.00579637 131.94422311 63.85564109 130.58846121 63.82373047 127.60253906 C62.66833064 124.7024391 61.19537601 122.57262418 59.28857422 120.09863281 C56.51496837 116.40700249 53.82936846 112.70439951 51.28857422 108.84863281 C47.46605325 103.06238539 43.5729644 97.32652729 39.66357422 91.59863281 C38.68795532 90.16910278 38.68795532 90.16910278 37.69262695 88.71069336 C33.58263577 82.6915319 29.46759956 76.67582664 25.35107422 70.66113281 C23.74243094 68.31011473 22.13386002 65.9590472 20.52539062 63.60791016 C19.37960268 61.93350264 18.23342511 60.25936169 17.08691406 58.58544922 C13.97887479 54.04652643 10.87992882 49.50189395 7.79638672 44.94628906 C5.02473644 40.8577182 2.19754526 36.81349022 -0.65673828 32.78222656 C-2.13366992 30.65878535 -3.61024109 28.53509336 -5.08642578 26.41113281 C-5.79130127 25.43571533 -6.49617676 24.46029785 -7.22241211 23.45532227 C-11.01967188 17.93380384 -12.93640236 13.97180846 -12.62915039 7.20336914 C-12.14892578 5.16113281 -12.14892578 5.16113281 -9.77392578 2.59863281 C-6.0975184 0.5853621 -4.19424609 0.03019333 0 0 Z " fill="#F0323E" transform="translate(632.14892578125,552.8388671875)"/>
<path d="M0 0 C1.81094344 1.56124877 3.60251756 3.14521968 5.375 4.75 C6.29152344 5.57242187 7.20804688 6.39484375 8.15234375 7.2421875 C25.58901703 23.72510166 36.59564553 46.41806033 37.71875 70.4765625 C38.44937029 99.05767658 29.48894488 123.98180737 10.15234375 145.1875 C-6.36662023 162.43481336 -30.53029825 173.34157185 -54.3828125 173.953125 C-84.70500171 174.32759005 -108.64394241 165.42520409 -130.6875 144.125 C-149.13752672 125.69259509 -156.86952695 100.96843988 -156.94342041 75.38796997 C-156.93160323 59.4676305 -154.07817937 46.96892958 -146.625 32.75 C-145.89023438 31.29207031 -145.89023438 31.29207031 -145.140625 29.8046875 C-133.43829817 8.08007085 -112.58600464 -9.30542029 -88.89453125 -16.44140625 C-57.91578771 -24.10281594 -25.71182586 -20.45258875 0 0 Z " fill="#F0333F" transform="translate(325.625,294.25)"/>
<path d="M0 0 C234.3 0 468.6 0 710 0 C710 9.24 710 18.48 710 28 C475.7 28 241.4 28 0 28 C0 18.76 0 9.52 0 0 Z " fill="#EF313D" transform="translate(185,495)"/>
<path d="M0 0 C0.96308075 -0.00571014 1.9261615 -0.01142029 2.91842651 -0.01730347 C3.97354935 -0.01842133 5.02867218 -0.01953918 6.11576843 -0.02069092 C7.22822937 -0.02565582 8.34069031 -0.03062073 9.48686218 -0.03573608 C13.17526361 -0.05036775 16.86362202 -0.05716139 20.55204773 -0.06268311 C23.1117147 -0.0684337 25.67138165 -0.07419144 28.23104858 -0.07995605 C32.91521036 -0.08912465 37.59935919 -0.09542382 42.28352767 -0.09845281 C49.17157571 -0.10293171 56.05942513 -0.12047296 62.94741279 -0.1494534 C68.91840379 -0.17370113 74.88934547 -0.18139842 80.8603878 -0.18312836 C83.3981198 -0.18615685 85.93585092 -0.19419195 88.4735508 -0.20731354 C92.02371406 -0.22435988 95.5733934 -0.22249692 99.12358093 -0.21600342 C100.17263107 -0.2252182 101.22168121 -0.23443298 102.30252075 -0.243927 C107.7224692 -0.21285827 111.65074159 0.04078724 116.31376648 3.14044189 C118.94533715 6.49325083 118.63634795 10.44401838 118.64970398 14.53887939 C118.65968918 15.60774887 118.65968918 15.60774887 118.6698761 16.69821167 C118.67997936 18.20269193 118.68469384 19.7072168 118.68437195 21.21173096 C118.68873937 23.50122796 118.72506247 25.78878642 118.76298523 28.07794189 C118.76885532 29.54408118 118.77282343 31.01022956 118.77470398 32.47637939 C118.78907501 33.15469818 118.80344604 33.83301697 118.81825256 34.53189087 C118.77104442 39.4981722 117.41737852 42.31532862 114.31376648 46.14044189 C111.33133093 47.63165967 108.28760896 47.27045662 105.01835632 47.25396729 C103.89138084 47.25418633 103.89138084 47.25418633 102.74163818 47.25440979 C100.25263098 47.25371186 97.76369815 47.24592503 95.27470398 47.23809814 C93.55120383 47.23623354 91.82770314 47.23480984 90.10420227 47.23381042 C85.56350751 47.22998858 81.02284463 47.22016112 76.48216248 47.20910645 C71.85051403 47.19888518 67.21886045 47.19431127 62.58720398 47.18927002 C53.49604187 47.17853857 44.40491181 47.16094444 35.31376648 47.14044189 C35.31376648 55.06044189 35.31376648 62.98044189 35.31376648 71.14044189 C37.04457458 71.11949463 38.77538269 71.09854736 40.55863953 71.07696533 C46.28618433 71.01238648 52.01367672 70.96646768 57.74148846 70.93319321 C61.21329832 70.91234478 64.68471321 70.88407895 68.15629578 70.83868408 C72.15023017 70.7867875 76.14375163 70.76747416 80.13798523 70.74981689 C82.00229439 70.71884918 82.00229439 70.71884918 83.90426636 70.68725586 C85.06509232 70.68695374 86.22591827 70.68665161 87.42192078 70.68634033 C88.95081184 70.67301666 88.95081184 70.67301666 90.5105896 70.65942383 C94.06518482 71.26938338 95.73319469 72.67470136 98.31376648 75.14044189 C100.45115971 79.41522836 99.54074477 85.08781409 99.55400085 89.83404541 C99.56368209 91.934631 99.59469332 94.03422764 99.62626648 96.13458252 C99.63279934 97.4763736 99.6380487 98.81817166 99.64189148 100.15997314 C99.65123718 101.37789551 99.66058289 102.59581787 99.67021179 103.85064697 C99.27782038 107.47220467 98.561477 109.2959014 96.31376648 112.14044189 C93.05628429 114.22687648 90.45253951 114.38441877 86.62724304 114.36749268 C85.4863623 114.36734161 84.34548157 114.36719055 83.17002869 114.36703491 C81.94386841 114.35671234 80.71770813 114.34638977 79.45439148 114.33575439 C78.19487671 114.3329245 76.93536194 114.3300946 75.63768005 114.32717896 C72.29702746 114.31788311 68.95664979 114.29992773 65.61607361 114.277771 C62.20413076 114.25727397 58.79215946 114.24816901 55.38017273 114.23809814 C48.691285 114.21604093 42.00256341 114.18151235 35.31376648 114.14044189 C35.31376648 122.06044189 35.31376648 129.98044189 35.31376648 138.14044189 C37.62014099 138.11425781 39.9265155 138.08807373 42.30278015 138.06109619 C49.92619153 137.97821792 57.54962291 137.92300664 65.17336559 137.88138103 C69.79535963 137.85529606 74.41689179 137.81991849 79.03862 137.76324463 C83.49958136 137.708885 87.96009871 137.67901308 92.42136574 137.66605568 C94.12265831 137.65682282 95.82392679 137.63879277 97.52503014 137.61179161 C99.90981263 137.57544685 102.2927649 137.57049852 104.67778015 137.57281494 C105.73082588 137.54585037 105.73082588 137.54585037 106.80514526 137.51834106 C110.63657864 137.55856121 112.20603471 138.05365855 115.22851562 140.48841858 C119.56651806 146.00549274 118.53578009 152.59250086 118.55400085 159.28179932 C118.56368554 161.43494611 118.594711 163.58712922 118.62626648 165.74005127 C118.63279937 167.11960292 118.63804872 168.49916137 118.64189148 169.87872314 C118.65123718 171.12693848 118.66058289 172.37515381 118.67021179 173.66119385 C118.27157648 177.55225678 117.49120551 179.89475247 115.31376648 183.14044189 C111.93331159 184.82782299 109.17311563 185.39099615 105.41825867 185.39440918 C103.97996704 185.40286865 103.97996704 185.40286865 102.51261902 185.41149902 C100.95239014 185.40542633 100.95239014 185.40542633 99.36064148 185.39923096 C98.25603577 185.4027356 97.15143005 185.40624023 96.01335144 185.40985107 C92.36342579 185.4186508 88.71369409 185.41282531 85.06376648 185.40606689 C82.52698225 185.40741405 79.99019827 185.409355 77.45341492 185.41186523 C72.13730675 185.41481412 66.82126805 185.41071732 61.50517273 185.40118408 C55.3652081 185.39030034 49.2253763 185.39382623 43.08541489 185.40483689 C37.17100166 185.41501726 31.2566296 185.41392595 25.34220886 185.40807343 C22.82878094 185.40673868 20.31534963 185.40837853 17.80192566 185.41303253 C14.29015607 185.41810798 10.77864203 185.41037287 7.26689148 185.39923096 C6.22673889 185.40327942 5.1865863 185.40732788 4.11491394 185.41149902 C3.15605286 185.40585937 2.19719177 185.40021973 1.20927429 185.39440918 C-0.03508392 185.3932781 -0.03508392 185.3932781 -1.30458069 185.39212418 C-4.20922893 185.08517411 -6.13562388 184.59606137 -8.68623352 183.14044189 C-11.62165614 178.74738081 -12.0637724 175.17339306 -12.07391357 169.96073914 C-12.07929911 169.26085296 -12.08468465 168.56096679 -12.09023339 167.83987194 C-12.10448168 165.50685626 -12.09741735 163.17441048 -12.09028625 160.84136963 C-12.09599137 159.16388494 -12.10295618 157.48640414 -12.11108398 155.80892944 C-12.12901209 151.2615173 -12.12784801 146.71429815 -12.1221416 142.1668613 C-12.11905014 138.36943583 -12.12514153 134.57204745 -12.13118035 130.77462727 C-12.14522198 121.81751387 -12.14366647 112.86049585 -12.13227844 103.90338135 C-12.12078919 94.66241657 -12.13488724 85.42174174 -12.16167492 76.18081516 C-12.18381986 68.24435521 -12.19047227 60.30798635 -12.18459851 52.37149769 C-12.18122584 47.63232894 -12.18366486 42.89334619 -12.20084953 38.15420341 C-12.21629809 33.69960869 -12.21238655 29.24544444 -12.19354439 24.79086685 C-12.18985311 23.15621715 -12.19298266 21.52153569 -12.20343018 19.88691521 C-12.2166054 17.65516569 -12.20512561 15.42484873 -12.18743896 13.19316101 C-12.18722968 11.94455009 -12.1870204 10.69593916 -12.18680477 9.40949154 C-11.59200518 5.52507069 -10.4647307 3.87452074 -7.68623352 1.14044189 C-4.80717717 0.18075644 -2.99095356 0.01062349 0 0 Z " fill="#F0323E" transform="translate(787.6862335205078,278.85955810546875)"/>
<path d="M0 0 C2.23636008 -0.00218252 4.47222351 -0.02033848 6.70849609 -0.03930664 C8.13687983 -0.04224166 9.5652659 -0.04422573 10.99365234 -0.04516602 C12.28899902 -0.0492749 13.5843457 -0.05338379 14.91894531 -0.05761719 C19.0875142 0.23525995 21.89204111 0.80803923 24.99154663 3.68379211 C27.10922382 7.50884974 26.79119203 11.14135212 26.76123047 15.44506836 C26.76660324 16.38222687 26.77197601 17.31938538 26.7775116 18.28494263 C26.78729357 20.3201542 26.79023248 22.3554075 26.78715515 24.39064026 C26.78267464 27.62053235 26.79668782 30.84987716 26.81555176 34.07971191 C26.85235964 40.94823313 26.86603134 47.81669745 26.87646484 54.68530273 C26.88857171 62.61989425 26.91033923 70.55422034 26.95646667 78.48869324 C26.96995183 81.65480216 26.96587963 84.82056838 26.96105957 87.98669434 C26.99479657 100.27875885 27.48852122 111.48183496 33.31396484 122.62280273 C33.79736328 123.57026367 34.28076172 124.51772461 34.77880859 125.49389648 C37.46902039 130.02581807 40.25928357 133.43061651 44.68896484 136.31030273 C45.40697266 136.78725586 46.12498047 137.26420898 46.86474609 137.75561523 C55.43811487 142.63563541 63.73345872 143.6882489 73.37646484 142.18530273 C83.57203793 139.38250617 91.26614491 132.96980671 96.67333984 124.04467773 C101.53974897 114.80555315 102.52440348 105.66955565 102.51831055 95.38208008 C102.52352219 93.94418877 102.52352219 93.94418877 102.52883911 92.47724915 C102.5361629 90.40604602 102.54152617 88.33483522 102.54512978 86.26362228 C102.55232532 82.98514256 102.56801226 79.70680988 102.58647156 76.42837524 C102.63881582 67.11071707 102.6869607 57.79314409 102.70239258 48.4753418 C102.71246331 42.76776503 102.74175522 37.06056571 102.78371239 31.35313797 C102.79603014 29.18025183 102.80114224 27.00731245 102.79891396 24.83439255 C102.79656571 21.79909514 102.81868834 18.76488671 102.84643555 15.72973633 C102.83653343 14.3846122 102.83653343 14.3846122 102.82643127 13.01231384 C102.88796178 8.91727982 103.05182927 6.71897136 105.22209167 3.15127563 C108.99756843 -0.29403509 112.87225495 0.01196065 117.71240234 -0.01782227 C118.78695175 -0.02637238 118.78695175 -0.02637238 119.88320923 -0.03509521 C121.39787322 -0.04453263 122.91255762 -0.0510742 124.42724609 -0.05493164 C126.73620687 -0.06463316 129.04427553 -0.09566502 131.35302734 -0.12719727 C132.82698041 -0.13372831 134.30093982 -0.13897839 135.77490234 -0.14282227 C136.46151947 -0.15516907 137.1481366 -0.16751587 137.8555603 -0.18023682 C142.21870042 -0.1601112 144.96774385 0.42432148 148.37646484 3.18530273 C151.89197841 7.66906808 151.79928888 11.56912207 151.7487793 17.02026367 C151.75242996 17.90076889 151.75608063 18.78127411 151.75984192 19.6884613 C151.76794394 22.59906339 151.75432694 25.50910751 151.73974609 28.41967773 C151.73922689 30.45688883 151.73974692 32.49410043 151.74125671 34.53131104 C151.74116697 38.80846612 151.73074318 43.08543285 151.71264648 47.36254883 C151.69013217 52.79879684 151.68938368 58.23476559 151.69616413 63.67104721 C151.69953802 67.8854411 151.69280756 72.09977345 151.6830349 76.31415558 C151.67922814 78.31526617 151.67801553 80.31638368 151.67962074 82.31749725 C151.6817256 98.0319363 151.58209671 113.90083669 146.25146484 128.87280273 C145.79296143 130.19513916 145.79296143 130.19513916 145.32519531 131.54418945 C140.84013521 143.99108283 134.20790201 154.302504 125.37646484 164.18530273 C124.83763672 164.81823242 124.29880859 165.45116211 123.74365234 166.10327148 C112.44795929 178.50582893 93.86382155 187.21377825 77.37646484 189.18530273 C73.47977352 189.35028362 69.58875825 189.37039694 65.68896484 189.37280273 C64.66351563 189.38504883 63.63806641 189.39729492 62.58154297 189.40991211 C40.22658186 189.4522778 22.06911347 180.69278736 6.37646484 165.18530273 C5.37486328 164.29198242 5.37486328 164.29198242 4.35302734 163.38061523 C-12.38577746 148.15663439 -19.29837008 123.01753325 -20.62353516 101.18530273 C-20.84443288 93.96164344 -20.83764089 86.73202096 -20.86181641 79.50561523 C-20.86589193 78.47385036 -20.86996746 77.44208549 -20.87416649 76.37905502 C-20.89490379 70.93328815 -20.90926671 65.48754567 -20.91870117 60.04174805 C-20.92983105 54.42279342 -20.96434102 48.80422764 -21.00387287 43.18541145 C-21.02997513 38.85315198 -21.03838657 34.52098705 -21.04198265 30.18865585 C-21.04685326 28.11619265 -21.05848071 26.0437338 -21.07702065 23.97134781 C-21.10130946 21.08026797 -21.10046763 18.1902224 -21.09350586 15.29907227 C-21.10631592 14.44600998 -21.11912598 13.59294769 -21.13232422 12.71403503 C-21.09716175 8.71196439 -20.9180562 6.66614873 -18.78166199 3.17819214 C-13.78164463 -1.43899785 -6.41222886 -0.00070233 0 0 Z " fill="#F0333F" transform="translate(413.62353515625,278.814697265625)"/>
<path d="M0 0 C0.97135895 -0.0038269 1.9427179 -0.00765381 2.94351196 -0.01159668 C4.99262532 -0.0143112 7.0417736 -0.00698232 9.09082031 0.00976562 C12.20978034 0.03113502 15.3264248 0.00997193 18.4453125 -0.015625 C20.44271337 -0.01298074 22.44011282 -0.00785372 24.4375 0 C25.36170746 -0.00809692 26.28591492 -0.01619385 27.23812866 -0.02453613 C33.04947658 0.05863782 38.19539749 0.7976407 42.8515625 4.53125 C46.56665779 9.17849102 46.27637382 13.5632921 46.23924255 19.24143982 C46.24462809 20.22561467 46.25001363 21.20978952 46.25556237 22.22378784 C46.26988127 25.52488838 46.26272839 28.82559015 46.25561523 32.12670898 C46.26131672 34.49206872 46.26828012 36.8574257 46.27641296 39.22277832 C46.29438364 45.65040561 46.29316862 52.07789668 46.28747058 58.50554156 C46.28441086 62.51965788 46.28736484 66.53375466 46.29194832 70.54786873 C46.29269674 71.214321 46.29344516 71.88077327 46.29421626 72.56742107 C46.29574775 73.92133602 46.29728609 75.27525096 46.29883123 76.6291659 C46.31255791 89.32475946 46.30711742 102.0202914 46.29564602 114.71588356 C46.2857134 126.32868837 46.29865443 137.94133386 46.32258021 149.5541141 C46.34696678 161.48046883 46.35658019 173.40674934 46.34992748 185.33312851 C46.34643427 192.02796431 46.34900834 198.72265953 46.36617851 205.41747856 C46.38161738 211.71219901 46.37772578 218.00661467 46.35887337 224.30132294 C46.35517907 226.61282606 46.35832028 228.92435162 46.36875916 231.23583412 C46.38191274 234.38893543 46.37047075 237.54101938 46.35276794 240.69407654 C46.36717545 242.06932288 46.36717545 242.06932288 46.38187402 243.47235197 C46.31830153 248.96764851 45.58597099 252.21335856 41.8515625 256.53125 C36.19578191 259.89697084 31.00845734 259.98529125 24.53515625 259.96484375 C23.5604689 259.9700856 22.58578156 259.97532745 21.58155823 259.98072815 C19.53004913 259.98712573 17.47850323 259.98584083 15.42700195 259.97729492 C12.29507129 259.96876636 9.16495483 259.99760843 6.03320312 260.02929688 C4.03385471 260.03090868 2.03450308 260.03033175 0.03515625 260.02734375 C-0.89623672 260.03857773 -1.8276297 260.04981171 -2.7872467 260.06138611 C-8.55986607 259.99970087 -11.7094501 259.29115328 -16.1484375 255.53125 C-19.21070119 252.04660511 -20.27119154 249.0690555 -20.28265858 244.46193218 C-20.28711642 243.63061108 -20.29157426 242.79928998 -20.29616719 241.94277734 C-20.29598283 241.02956288 -20.29579847 240.11634843 -20.29560852 239.17546082 C-20.29928521 238.20524547 -20.3029619 237.23503013 -20.30675 236.23541433 C-20.31780289 232.96968173 -20.32163338 229.70398094 -20.32543945 226.43823242 C-20.3317028 224.10272622 -20.33834949 221.76722102 -20.34535217 219.43171692 C-20.36277179 213.07632595 -20.3733162 206.72094252 -20.3815577 200.36553359 C-20.38670498 196.39733165 -20.39278079 192.42913206 -20.39906883 188.46093178 C-20.41593827 177.47452047 -20.43057393 166.48811124 -20.43781757 155.50168896 C-20.43972746 152.65110968 -20.4416478 149.80053042 -20.44360352 146.94995117 C-20.44408726 146.24145522 -20.444571 145.53295927 -20.4450694 144.80299375 C-20.45337194 133.32263702 -20.47871344 121.8423844 -20.51118419 110.36207315 C-20.54424833 98.57591776 -20.56226569 86.78981531 -20.56546181 75.00361329 C-20.56762736 68.38587169 -20.57682511 61.76826467 -20.60192299 55.15056419 C-20.62514674 48.92648208 -20.62945977 42.70267365 -20.61916161 36.47855949 C-20.61866478 34.19284914 -20.62502825 31.90712556 -20.63871765 29.62145615 C-20.65634971 26.50330358 -20.64937274 23.38614252 -20.63618469 20.26799011 C-20.64715394 19.36146783 -20.65812318 18.45494554 -20.66942483 17.52095288 C-20.61322177 12.02473246 -19.81209993 8.89023171 -16.1484375 4.53125 C-11.02964133 -0.05149154 -6.54168441 -0.05706133 0 0 Z " fill="#F0323E" transform="translate(525.1484375,552.46875)"/>
<path d="M0 0 C1.11460602 -0.00571014 2.22921204 -0.01142029 3.37759399 -0.01730347 C4.60619644 -0.01842133 5.83479889 -0.01953918 7.10063171 -0.02069092 C8.39011719 -0.02565582 9.67960266 -0.03062073 11.00816345 -0.03573608 C14.55165564 -0.04886871 18.09512887 -0.05530685 21.6386416 -0.05974674 C23.85216735 -0.06267641 26.0656879 -0.06678105 28.27921104 -0.07125092 C35.20382994 -0.08492885 42.12843699 -0.09459374 49.05306846 -0.09845281 C57.04819451 -0.10293279 65.04314952 -0.12047656 73.03822356 -0.1494534 C79.21663842 -0.17106907 85.39500515 -0.18115704 91.57345742 -0.18249393 C95.26416003 -0.18354215 98.95470194 -0.18945339 102.64536476 -0.20731354 C106.76337179 -0.22685346 110.88102098 -0.22250573 114.99906921 -0.21600342 C116.83286385 -0.22982559 116.83286385 -0.22982559 118.70370483 -0.243927 C120.38830307 -0.23557327 120.38830307 -0.23557327 122.10693359 -0.22705078 C123.08051473 -0.22851734 124.05409586 -0.2299839 125.05717945 -0.2314949 C128.28052152 0.2147222 130.13001352 1.22598234 132.74394226 3.14044189 C135.19634076 6.81903964 135.06697124 9.65436102 135.07987976 13.91387939 C135.08986496 15.05501694 135.08986496 15.05501694 135.10005188 16.21920776 C135.11017149 17.82801905 135.11486911 19.43687225 135.11454773 21.04571533 C135.11891456 23.49987497 135.1552201 25.95222622 135.19316101 28.40606689 C135.19903075 29.97116493 135.20299909 31.53627148 135.20487976 33.10137939 C135.21925079 33.83174408 135.23362183 34.56210876 135.24842834 35.31460571 C135.21621404 38.93046397 134.83834086 40.98971955 132.90263367 44.0803833 C129.90566579 46.94041666 127.5270011 47.26591655 123.54789734 47.25396729 C122.70725235 47.25389175 121.86660736 47.25381622 121.00048828 47.2537384 C120.09727341 47.24857712 119.19405853 47.24341583 118.26347351 47.23809814 C117.33548447 47.2366832 116.40749542 47.23526825 115.4513855 47.23381042 C112.48637168 47.22821126 109.52143327 47.21565894 106.55644226 47.20294189 C104.54667773 47.19792679 102.53691201 47.1933639 100.52714539 47.18927002 C95.59938194 47.17824211 90.67167489 47.16097806 85.74394226 47.14044189 C85.74762943 47.80489634 85.7513166 48.46935078 85.75511551 49.1539402 C85.84349117 65.32900877 85.90966375 81.50400077 85.95119095 97.67925453 C85.97180751 105.50152894 85.9999106 113.32364209 86.04570007 121.14581299 C86.08559581 127.96441868 86.11138167 134.78290758 86.12029624 141.60162675 C86.12550643 145.2114288 86.13773282 148.82089673 86.16686249 152.43059158 C86.19913434 156.46244312 86.19989993 160.4937155 86.19804382 164.5256958 C86.21242493 165.71972015 86.22680603 166.91374451 86.24162292 168.14395142 C86.21024449 174.43308641 86.04885527 178.39449257 81.74394226 183.14044189 C78.31117078 185.75543923 74.42414473 185.43045822 70.27519226 185.40606689 C69.55786926 185.40798035 68.84054626 185.4098938 68.10148621 185.41186523 C66.58858386 185.41322302 65.07566971 185.40955499 63.56278992 185.40118408 C61.25181316 185.39047836 58.9416137 185.40109268 56.63066101 185.41387939 C55.15800305 185.41255773 53.68534557 185.40999518 52.21269226 185.40606689 C51.5240509 185.41011536 50.83540955 185.41416382 50.12590027 185.41833496 C43.54825543 185.35428958 43.54825543 185.35428958 40.74394226 183.14044189 C36.73957146 177.34318135 37.34229132 171.28686107 37.40336609 164.5256958 C37.40292801 163.25685547 37.40248993 161.98801514 37.40203857 160.6807251 C37.40118022 157.21412014 37.41877967 153.74782858 37.43976045 150.28129625 C37.45855415 146.65382521 37.4602798 143.02634645 37.46383667 139.39883423 C37.47314925 132.53535053 37.49775229 125.67201072 37.52788514 118.80859029 C37.56145373 110.99241706 37.57792132 103.17623684 37.59297144 95.36000943 C37.62430262 79.28673611 37.67704769 63.21360739 37.74394226 47.14044189 C36.49782166 47.15091553 35.25170105 47.16138916 33.96781921 47.17218018 C29.33666364 47.20842934 24.70552056 47.23136033 20.07426453 47.25030518 C18.07131337 47.26035153 16.06837684 47.27399099 14.06547546 47.2913208 C11.18352139 47.31562902 8.30176154 47.32693876 5.41972351 47.33575439 C4.52683121 47.34607697 3.6339389 47.35639954 2.71398926 47.36703491 C-1.69171515 47.36782675 -5.29548046 47.32490986 -9.25605774 45.14044189 C-11.98144786 41.6942917 -11.57916392 37.47363652 -11.59199524 33.26934814 C-11.59865204 32.51000473 -11.60530884 31.75066132 -11.61216736 30.9683075 C-11.62227261 29.36547257 -11.62698504 27.76259575 -11.62666321 26.159729 C-11.63103717 23.71444089 -11.66737762 21.27095785 -11.70527649 18.82598877 C-11.7111451 17.26544804 -11.7151142 15.70489877 -11.71699524 14.14434814 C-11.73136627 13.41712051 -11.7457373 12.68989288 -11.76054382 11.94062805 C-11.71680983 7.05469608 -10.736321 4.56436267 -7.25605774 1.14044189 C-4.69251415 -0.1413299 -2.87133121 0.00878322 0 0 Z " fill="#F0333F" transform="translate(606.2560577392578,278.85955810546875)"/>
<path d="M0 0 C12.22860535 7.2818145 21.01702388 16.80059714 25.39355469 30.50634766 C26.4636908 34.90665776 26.53072719 39.23901198 26.5 43.75 C26.49500488 44.71574951 26.49000977 45.68149902 26.48486328 46.67651367 C26.16102719 60.00181061 20.81973547 70.81184361 11.875 80.625 C2.30242974 89.7316487 -9.72751972 94.59855762 -22.8125 94.4375 C-23.6876123 94.42920166 -24.56272461 94.42090332 -25.46435547 94.41235352 C-37.36454473 94.1032434 -45.68806779 90.25985826 -55 83 C-55.886875 82.401875 -56.77375 81.80375 -57.6875 81.1875 C-68.6918188 70.77800924 -72.92699205 57.30196144 -73.375 42.5625 C-73.16507967 29.52119927 -67.09945211 17.30625784 -58 8 C-41.2247297 -5.22833274 -19.67257171 -10.92309227 0 0 Z " fill="#FEFEFE" transform="translate(289,327)"/>
</svg>
