<?xml version="1.0" encoding="UTF-8"?>
<svg version="1.1" xmlns="http://www.w3.org/2000/svg" width="512" height="512">
<path d="M0 0 C3.8905732 2.22865512 5.96620368 4.13848375 7.75 8.375 C8.89447126 19.07351982 6.4420721 29.24513463 4.15527344 39.60620117 C3.76553987 41.41903319 3.37698709 43.23211939 2.98950958 45.04543495 C1.93323065 49.9722984 0.86050465 54.89545079 -0.21512127 59.81812119 C-1.3610855 65.0768848 -2.49142983 70.33900578 -3.62359619 75.60075378 C-5.81073331 85.75397068 -8.01164208 95.90415156 -10.21756673 106.05330127 C-12.75262715 117.71908088 -15.27462155 129.38767149 -17.79528236 141.05656958 C-19.05765502 146.90038151 -20.32048753 152.74409403 -21.58349609 158.58776855 C-21.83314401 159.74284212 -22.08279192 160.89791568 -22.34000492 162.08799148 C-24.1052602 170.25389074 -25.8735144 178.41913731 -27.64306641 186.58410645 C-33.22052622 212.3226212 -38.764625 238.06774257 -44.2425766 263.82762337 C-45.24534362 268.54260446 -46.25019572 273.25713928 -47.25567627 277.97154236 C-47.41561734 278.72154257 -47.57555842 279.47154278 -47.74034619 280.24427027 C-48.368791 283.19112957 -48.9972687 286.13798185 -49.62589693 289.08480203 C-51.39742115 297.38973524 -53.16276501 305.69592335 -54.91812491 314.00428849 C-56.1166732 319.6734432 -57.32746954 325.33993544 -58.54308319 331.00545692 C-59.02664937 333.26910995 -59.50607909 335.53365148 -59.98090363 337.79915428 C-60.61762312 340.83519246 -61.26882623 343.86776453 -61.92382812 346.89990234 C-62.10224369 347.76874652 -62.28065926 348.63759069 -62.46448135 349.53276348 C-63.92838498 356.18963377 -65.82635514 361.48455701 -71.375 365.8125 C-77.30085724 368.6621686 -82.82160498 368.20154165 -88.96484375 366.1105957 C-92.629039 364.63867367 -96.22904314 363.02927653 -99.82122803 361.39050293 C-102.22582452 360.29504049 -104.64043332 359.22517719 -107.05908203 358.16113281 C-114.65260322 354.8124458 -122.21401775 351.39503808 -129.76277161 347.9467926 C-132.94703812 346.49916095 -136.14114005 345.0741997 -139.33743286 343.65335083 C-141.59134269 342.64013027 -143.82800491 341.59408456 -146.06616211 340.54663086 C-147.44694768 339.93031945 -148.82850001 339.31572203 -150.2109375 338.703125 C-151.40509277 338.1555957 -152.59924805 337.60806641 -153.82958984 337.04394531 C-157.76379149 336.27451544 -159.33815613 336.9847041 -162.62823486 339.19238281 C-163.16341736 339.58264648 -163.69859985 339.97291016 -164.25 340.375 C-165.10424561 340.93622559 -165.95849121 341.49745117 -166.83862305 342.07568359 C-167.63824463 342.63594238 -168.43786621 343.19620117 -169.26171875 343.7734375 C-170.17373047 344.41023438 -171.08574219 345.04703125 -172.02539062 345.703125 C-173.46688477 346.71632813 -173.46688477 346.71632813 -174.9375 347.75 C-175.95134766 348.45898438 -176.96519531 349.16796875 -178.00976562 349.8984375 C-181.09180012 352.0545141 -184.17108056 354.21447824 -187.25 356.375 C-188.96465264 357.57579377 -190.67948435 358.77633191 -192.39453125 359.9765625 C-194.82614746 361.67832928 -197.25759953 363.38032507 -199.68823242 365.08349609 C-206.03243568 369.52801558 -212.38946225 373.95389622 -218.75 378.375 C-226.25727661 383.59379665 -233.75894512 388.82043994 -241.25 394.0625 C-242.45946289 394.90844727 -242.45946289 394.90844727 -243.69335938 395.77148438 C-244.45455078 396.30451172 -245.21574219 396.83753906 -246 397.38671875 C-246.71800781 397.88864746 -247.43601563 398.39057617 -248.17578125 398.90771484 C-249.55723476 399.88494361 -250.92976437 400.87491276 -252.29296875 401.87744141 C-257.05288714 405.375 -257.05288714 405.375 -259.25 405.375 C-259.58 406.365 -259.91 407.355 -260.25 408.375 C-265.28230307 412.12726588 -270.12462175 413.06657496 -276.25 412.375 C-282.57785322 410.14164004 -286.01572346 405.83303722 -288.94067383 400.00805664 C-289.45711517 398.7716226 -289.96204291 397.53033388 -290.45703125 396.28515625 C-290.73905899 395.60144958 -291.02108673 394.91774292 -291.31166077 394.21331787 C-292.23881542 391.95874276 -293.15057427 389.69827276 -294.0625 387.4375 C-294.72115843 385.82795565 -295.38084815 384.21883298 -296.04150391 382.61010742 C-297.42537035 379.23529869 -298.80294894 375.85802608 -300.17529297 372.47851562 C-302.16911832 367.56945386 -304.17775667 362.66658338 -306.19140625 357.765625 C-306.84588617 356.17237162 -307.50034577 354.57910988 -308.15478516 352.98583984 C-308.47940735 352.19554382 -308.80402954 351.4052478 -309.13848877 350.59100342 C-310.13054819 348.17398258 -311.12096173 345.75629384 -312.11083984 343.33837891 C-316.73843615 332.03673345 -321.40134316 320.75007714 -326.08383179 309.47106934 C-328.84239412 302.82611105 -331.5981332 296.17998072 -334.35437012 289.53405762 C-335.19190285 287.51505238 -336.02998819 285.49627737 -336.86816406 283.47753906 C-338.18656758 280.29900739 -339.50055542 277.11870169 -340.8125 273.9375 C-341.17657959 273.062146 -341.54065918 272.18679199 -341.91577148 271.28491211 C-344.25 265.6052519 -344.25 265.6052519 -344.25 263.375 C-344.90484375 263.15070313 -345.5596875 262.92640625 -346.234375 262.6953125 C-350.25878332 260.93333062 -353.81066102 258.62285153 -357.5 256.25 C-358.32137451 255.72647949 -359.14274902 255.20295898 -359.98901367 254.66357422 C-362.74545967 252.90503275 -365.49782205 251.14021259 -368.25 249.375 C-370.26155746 248.08828947 -372.27328049 246.80183777 -374.28515625 245.515625 C-378.51447742 242.81086126 -382.74202922 240.10335642 -386.96875 237.39453125 C-391.91327842 234.2275122 -396.86590989 231.07354802 -401.82348633 227.92700195 C-405.40681823 225.65128756 -408.98556828 223.36842565 -412.56396484 221.08496094 C-414.40073824 219.91564983 -416.23971341 218.74979205 -418.08056641 217.58691406 C-420.85047131 215.8366498 -423.61325852 214.07560866 -426.375 212.3125 C-427.21071533 211.78825439 -428.04643066 211.26400879 -428.9074707 210.72387695 C-433.77749124 207.59708803 -437.59729379 204.68041242 -440.25 199.375 C-440.75282832 193.86861777 -440.96321529 188.97260224 -438.6875 183.875 C-433.23446435 178.28214293 -425.51638052 175.62250295 -418.44921875 172.5859375 C-417.3977063 172.13034958 -416.34619385 171.67476166 -415.26281738 171.20536804 C-411.82277407 169.71620963 -408.38020294 168.23299817 -404.9375 166.75 C-402.52307366 165.70657577 -400.10876835 164.66287143 -397.69458008 163.61889648 C-390.5492228 160.53099224 -383.40035985 157.45130231 -376.25 154.375 C-375.27546875 153.95571228 -374.3009375 153.53642456 -373.296875 153.10443115 C-363.07430982 148.70771932 -352.84518201 144.3264172 -342.6131134 139.95187378 C-331.96921698 135.40094709 -321.32997745 130.839158 -310.69033813 126.27828979 C-304.70776134 123.71384549 -298.72496262 121.14991906 -292.7421875 118.5859375 C-290.31998593 117.54785402 -287.89778541 116.50976808 -285.47558594 115.47167969 C-280.71321615 113.43066406 -275.95084635 111.38964844 -271.18847656 109.34863281 C-270.03285721 108.85336594 -268.87723785 108.35809906 -267.68659973 107.8478241 C-265.35952671 106.85050999 -263.03244948 105.85320571 -260.70536804 104.85591125 C-254.89014965 102.3637257 -249.07500497 99.87136839 -243.26000977 97.37866211 C-232.73227519 92.86594938 -222.20401801 88.35447707 -211.67303467 83.84934998 C-187.63058471 73.56390496 -163.60470692 63.24348255 -139.625 52.8125 C-119.50864136 44.06281336 -99.3562069 35.40130688 -79.15917969 26.83935547 C-76.93942359 25.89818164 -74.71969691 24.95693842 -72.5 24.015625 C-71.40834534 23.55274078 -70.31669067 23.08985657 -69.19195557 22.61294556 C-62.46354953 19.7549292 -55.75026563 16.86415532 -49.04751587 13.94648743 C-44.69342986 12.05180493 -40.33499081 10.16725636 -35.97625732 8.28329468 C-33.93106243 7.39577968 -31.8880707 6.50316794 -29.84747314 5.60513306 C-27.04181492 4.37080352 -24.22901848 3.15434902 -21.4140625 1.94140625 C-20.5988916 1.57702454 -19.7837207 1.21264282 -18.94384766 0.83721924 C-12.71145962 -1.81641473 -6.37029238 -3.29220993 0 0 Z " fill="#5550DC" transform="translate(472.25,50.625)"/>
<path d="M0 0 C0 4.12744343 -1.61750496 5.04694583 -4.4375 8 C-7.9611575 11.7492518 -11.33301116 15.5513151 -14.5625 19.5625 C-17.44848793 23.13828469 -20.40444804 26.60401318 -23.5 30 C-27.34558741 34.22416855 -30.96730971 38.58953073 -34.5625 43.02734375 C-37.26891072 46.32795041 -40.03041305 49.57569191 -42.8125 52.8125 C-43.31668457 53.399104 -43.82086914 53.98570801 -44.34033203 54.59008789 C-46.41257256 56.99851812 -48.48709444 59.40497822 -50.56152344 61.81152344 C-55.58161498 67.63835913 -60.59373649 73.46234648 -65.4375 79.4375 C-69.53979949 84.48933717 -73.78701978 89.4030598 -78.06005859 94.31005859 C-82.04703759 98.89096638 -85.98811681 103.50741507 -89.90136719 108.15136719 C-93.28481948 112.16384184 -96.70100184 116.14710388 -100.125 120.125 C-103.61823856 124.18620876 -107.06448707 128.27518971 -110.4375 132.4375 C-114.53979949 137.48933717 -118.78701978 142.4030598 -123.06005859 147.31005859 C-127.04703759 151.89096638 -130.98811681 156.50741507 -134.90136719 161.15136719 C-138.28481948 165.16384184 -141.70100184 169.14710388 -145.125 173.125 C-148.61823856 177.18620876 -152.06448707 181.27518971 -155.4375 185.4375 C-159.53979949 190.48933717 -163.78701978 195.4030598 -168.06005859 200.31005859 C-172.04703759 204.89096638 -175.98811681 209.50741507 -179.90136719 214.15136719 C-183.28481948 218.16384184 -186.70100184 222.14710388 -190.125 226.125 C-193.61823856 230.18620876 -197.06448707 234.27518971 -200.4375 238.4375 C-204.53979949 243.48933717 -208.78701978 248.4030598 -213.06005859 253.31005859 C-217.04328169 257.88665098 -220.9806062 262.49878561 -224.89038086 267.13818359 C-228.87744345 271.86612736 -232.90287391 276.5605578 -236.94165039 281.24438477 C-237.64922485 282.06700806 -237.64922485 282.06700806 -238.37109375 282.90625 C-238.9887561 283.62264648 -238.9887561 283.62264648 -239.61889648 284.35351562 C-240.07466064 284.89685547 -240.5304248 285.44019531 -241 286 C-241.68505615 286.65194336 -242.3701123 287.30388672 -243.07592773 287.97558594 C-245.99373673 292.56203662 -246.00635069 297.14293696 -246.4140625 302.484375 C-246.51463959 303.61337219 -246.61521667 304.74236938 -246.71884155 305.90557861 C-247.0374176 309.51917763 -247.33192245 313.13425209 -247.625 316.75 C-247.9295474 320.31223779 -248.23904281 323.87402135 -248.54901123 327.43579102 C-248.75024285 329.75444041 -248.9491877 332.07328943 -249.14581299 334.39233398 C-249.68657458 340.70956324 -250.30442493 347.00495099 -251.0859375 353.296875 C-252.14544281 361.87643847 -252.70346577 370.45891804 -253.2109375 379.0859375 C-254.39364825 397.39756248 -254.39364825 397.39756248 -259 404 C-264.0943902 407.77667264 -268.78364632 408.70184638 -275 408 C-281.32785322 405.76664004 -284.76572346 401.45803722 -287.69067383 395.63305664 C-288.20711517 394.3966226 -288.71204291 393.15533388 -289.20703125 391.91015625 C-289.48905899 391.22644958 -289.77108673 390.54274292 -290.06166077 389.83831787 C-290.98881542 387.58374276 -291.90057427 385.32327276 -292.8125 383.0625 C-293.47115843 381.45295565 -294.13084815 379.84383298 -294.79150391 378.23510742 C-296.17537035 374.86029869 -297.55294894 371.48302608 -298.92529297 368.10351562 C-300.91911832 363.19445386 -302.92775667 358.29158338 -304.94140625 353.390625 C-305.59588617 351.79737162 -306.25034577 350.20410988 -306.90478516 348.61083984 C-307.22940735 347.82054382 -307.55402954 347.0302478 -307.88848877 346.21600342 C-308.88054819 343.79898258 -309.87096173 341.38129384 -310.86083984 338.96337891 C-315.48843615 327.66173345 -320.15134316 316.37507714 -324.83383179 305.09606934 C-327.59239412 298.45111105 -330.3481332 291.80498072 -333.10437012 285.15905762 C-333.94190285 283.14005238 -334.77998819 281.12127737 -335.61816406 279.10253906 C-336.93656758 275.92400739 -338.25055542 272.74370169 -339.5625 269.5625 C-339.92657959 268.687146 -340.29065918 267.81179199 -340.66577148 266.90991211 C-343 261.2302519 -343 261.2302519 -343 259 C-340.80813192 257.20806259 -338.60316223 255.53341023 -336.3125 253.875 C-334.83518782 252.78747598 -333.3586648 251.69887936 -331.8828125 250.609375 C-331.09036133 250.02607422 -330.29791016 249.44277344 -329.48144531 248.84179688 C-325.18098855 245.64987974 -320.93844327 242.38237961 -316.6875 239.125 C-309.94611018 233.97097232 -303.16102555 228.88570233 -296.3125 223.875 C-289.36753963 218.79262035 -282.55060646 213.56982917 -275.77978516 208.25830078 C-269.52594986 203.36893864 -263.15334545 198.65468592 -256.74951172 193.96435547 C-250.72295912 189.54653864 -244.78923144 185.02715401 -238.88085938 180.45214844 C-227.22221002 171.45089631 -215.47561881 162.57468626 -203.59863281 153.86376953 C-197.62491842 149.47694063 -191.7410366 144.98983549 -185.88085938 140.45214844 C-174.34220875 131.54354331 -162.71828085 122.75841883 -150.95458984 114.14941406 C-145.56351554 110.18958847 -140.26345097 106.12761134 -135 102 C-128.96903261 97.27050037 -122.87240086 92.65137996 -116.6875 88.125 C-106.34958922 80.5580318 -96.17225899 72.78755359 -86 65 C-75.05272897 56.61912218 -64.07865517 48.29045434 -52.95263672 40.14794922 C-46.80664588 35.63370548 -40.78763731 30.9718192 -34.78857422 26.26489258 C-28.49441376 21.34338742 -22.08685466 16.58755873 -15.63085938 11.88085938 C-10.34120363 8.01908616 -5.14903 4.0473488 0 0 Z " fill="#4E46C2" transform="translate(471,55)"/>
<path d="M0 0 C13.83870884 5.35584645 27.44446509 11.2015353 41.02322388 17.17822266 C42.06166946 17.63527588 42.06166946 17.63527588 43.12109375 18.1015625 C43.82346161 18.41077637 44.52582947 18.71999023 45.2494812 19.03857422 C54.31517841 23.02506939 63.40815419 26.94860761 72.5 30.875 C74.15617028 31.59049096 75.81233894 32.30598565 77.46850586 33.02148438 C81.31202878 34.68170478 85.1559019 36.34111182 89 38 C89 38.66 89 39.32 89 40 C87.57324219 41.19824219 87.57324219 41.19824219 85.546875 42.546875 C84.792854 43.05468506 84.03883301 43.56249512 83.26196289 44.08569336 C82.43301514 44.63491455 81.60406738 45.18413574 80.75 45.75 C78.99279351 46.93256008 77.23630525 48.11618799 75.48046875 49.30078125 C74.57087402 49.91260254 73.6612793 50.52442383 72.72412109 51.15478516 C68.47082502 54.03580431 64.26557708 56.98389635 60.0625 59.9375 C59.23306885 60.51935059 58.4036377 61.10120117 57.54907227 61.70068359 C55.86676706 62.88098047 54.18471901 64.06164395 52.50292969 65.24267578 C48.40004359 68.12334045 44.29402997 70.99953311 40.1875 73.875 C38.96498535 74.73121948 38.96498535 74.73121948 37.71777344 75.60473633 C31.25904162 80.12547119 24.78683358 84.62664799 18.3125 89.125 C8.84286153 95.70489499 -0.59200039 102.33231705 -10 109 C-10.66 108.67 -11.32 108.34 -12 108 C-11.690625 107.34386719 -11.38125 106.68773437 -11.0625 106.01171875 C-9.7566471 102.31020189 -9.36033352 98.69345585 -9 94.8125 C-8.91878906 93.9973291 -8.83757812 93.1821582 -8.75390625 92.34228516 C-7.95343839 84.0589822 -7.3607069 75.75903427 -6.74780273 67.46020508 C-6.20897946 60.30394211 -5.46919929 53.22131658 -4.5703125 46.1015625 C-3.49956269 37.04107231 -2.8229757 27.93008485 -2.05297852 18.83984375 C-1.9908316 18.11407135 -1.92868469 17.38829895 -1.86465454 16.64053345 C-1.69377641 14.64250062 -1.52539782 12.64425447 -1.35717773 10.64599609 C-1.00701599 7.07161777 -0.53581997 3.55020066 0 0 Z " fill="#605CD5" transform="translate(225,347)"/>
</svg>
