<?xml version="1.0" encoding="UTF-8"?>
<svg version="1.1" xmlns="http://www.w3.org/2000/svg" width="568" height="370">
<path d="M0 0 C2.75329021 1.79562405 4.52627461 3.05254922 6 6 C5.93617549 15.06402842 3.75676746 24.03032659 1.96484375 32.875 C1.65090226 34.44734688 1.33753869 36.01980925 1.02470398 37.59237671 C0.35318537 40.96330285 -0.32158321 44.33355478 -0.9989624 47.70330811 C-2.6400948 55.86971024 -4.26308132 64.03972761 -5.88680267 72.20960617 C-6.26338217 74.10413816 -6.64015898 75.99863095 -7.01712799 77.89308548 C-10.87449454 97.28068439 -14.63250594 116.68680958 -18.36117554 136.09951782 C-19.36896687 141.34570485 -20.38014466 146.59123568 -21.3918457 151.83666992 C-25.21657173 171.66545744 -25.21657173 171.66545744 -28.98528481 191.50494385 C-30.02298882 197.01249708 -31.07172235 202.51789287 -32.12481689 208.02252197 C-32.53542428 210.18331178 -32.94113918 212.34503815 -33.3414917 214.50775146 C-33.87691529 217.39956985 -34.42859206 220.28781846 -34.984375 223.17578125 C-35.13160004 223.9965062 -35.27882507 224.81723114 -35.43051147 225.66282654 C-36.56049583 231.40011981 -38.62079402 235.53582238 -42.75 239.8125 C-47.36853577 242.25006055 -51.41632336 242.44821037 -56.3125 241.0625 C-61.62500423 238.40624788 -66.2877194 234.57505021 -71 231 C-72.85349648 229.60327687 -74.70768166 228.20746726 -76.5625 226.8125 C-78.06103516 225.68328125 -78.06103516 225.68328125 -79.58984375 224.53125 C-82.81090286 222.12434698 -86.07763252 219.78377964 -89.34716797 217.44335938 C-98.85542647 210.63573164 -108.12041945 203.55917238 -117.29272461 196.3059082 C-120.29393962 193.72556476 -120.29393962 193.72556476 -124.00244141 193.22900391 C-127.3320284 194.51412194 -129.75473436 197.0198933 -132.375 199.375 C-138.38619742 204.65486951 -144.5348166 209.69024911 -150.87109375 214.57421875 C-152.74208216 216.02476033 -154.59556004 217.49903491 -156.41015625 219.01953125 C-159.71556342 221.73900882 -161.42186637 222.91327996 -165.75 223.5625 C-169.29909765 222.9482331 -170.44836443 222.46990946 -173 220 C-174.03394257 217.67196515 -174.8450825 215.51424941 -175.59375 213.09765625 C-175.8221759 212.39982529 -176.05060181 211.70199432 -176.28594971 210.98301697 C-177.03671566 208.68009377 -177.76835821 206.37156291 -178.5 204.0625 C-179.01850201 202.4585458 -179.53837872 200.85503539 -180.05957031 199.25195312 C-180.87266593 196.74935526 -181.68436386 194.24636559 -182.49078369 191.74160767 C-184.42851521 185.72583663 -186.42400616 179.7316122 -188.453125 173.74609375 C-189.01109094 172.0956296 -189.56903401 170.44515771 -190.12695312 168.79467773 C-190.93432577 166.40728647 -191.74304363 164.02040129 -192.55639648 161.63504028 C-193.30882473 159.42520624 -194.05366326 157.21294769 -194.796875 155 C-195.02127258 154.34740707 -195.24567017 153.69481415 -195.47686768 153.02244568 C-196.55890475 149.77819593 -197 147.4797613 -197 144 C-197.6583786 143.82581039 -198.3167572 143.65162079 -198.99508667 143.47215271 C-205.95538316 141.60563669 -212.83090448 139.53862089 -219.6953125 137.34765625 C-220.76820526 137.00625107 -221.84109802 136.66484589 -222.94650269 136.31309509 C-225.1973164 135.59579707 -227.44772903 134.87723933 -229.69775391 134.1574707 C-233.12102666 133.06376944 -236.5467637 131.978041 -239.97265625 130.89257812 C-242.1720305 130.19059117 -244.37125446 129.48813314 -246.5703125 128.78515625 C-247.5830423 128.46523209 -248.59577209 128.14530792 -249.63919067 127.81568909 C-264.90352303 122.90588815 -264.90352303 122.90588815 -269.0625 119.125 C-270.37214931 116.15646155 -270.45927302 114.21491114 -270 111 C-266.88114368 105.96223369 -263.09541056 104.3004649 -257.828125 102.1328125 C-256.63005219 101.62090866 -256.63005219 101.62090866 -255.40777588 101.09866333 C-252.94441814 100.05104062 -250.47339469 99.02366698 -248 98 C-246.58122719 97.40498714 -245.16260003 96.8096268 -243.74414062 96.21386719 C-239.42305883 94.4088369 -235.08717698 92.64092262 -230.75 90.875 C-229.102453 90.20178936 -227.45499518 89.52836044 -225.80761719 88.85473633 C-221.22483902 86.98187796 -216.64046774 85.11294978 -212.05566406 83.24505615 C-208.82593924 81.92907747 -205.59653253 80.61232053 -202.3671875 79.29541016 C-190.93878311 74.63519382 -179.5092258 69.97781712 -168.078125 65.32421875 C-166.4716938 64.67022598 -166.4716938 64.67022598 -164.83280945 64.00302124 C-163.75932755 63.56599884 -162.68584564 63.12897644 -161.57983398 62.67871094 C-159.38655553 61.78580841 -157.19327754 60.89290475 -155 60 C-153.8674881 59.53895874 -152.7349762 59.07791748 -151.56814575 58.60290527 C-137.55941491 52.89954131 -123.55567457 47.18429869 -109.55987549 41.44927979 C-77.98130532 28.51283353 -46.35433577 15.69667296 -14.6550293 3.05883789 C-12.88571143 2.35322579 -11.12394251 1.62838115 -9.37036133 0.88452148 C-6.05287003 -0.35343 -3.51228141 -0.37631586 0 0 Z " fill="#FEFEFE" transform="translate(553,11)"/>
<path d="M0 0 C-1.56967559 4.02288115 -4.40928186 6.45196761 -7.5625 9.25 C-8.74695361 10.32196734 -9.93050177 11.39493575 -11.11328125 12.46875 C-11.74443848 13.03980469 -12.3755957 13.61085938 -13.02587891 14.19921875 C-16.47174445 17.34251633 -19.85881556 20.54795131 -23.25 23.75 C-24.70180292 25.1185108 -26.15362605 26.48700016 -27.60546875 27.85546875 C-28.33169434 28.54044434 -29.05791992 29.22541992 -29.80615234 29.93115234 C-33.38958524 33.31041012 -36.97589705 36.6866074 -40.5625 40.0625 C-41.26528076 40.72403076 -41.96806152 41.38556152 -42.69213867 42.06713867 C-49.45819123 48.43431744 -56.23604158 54.78886962 -63.01611328 61.14111328 C-66.34475112 64.26002154 -69.67231906 67.38007087 -73 70.5 C-74.33332826 71.75000541 -75.66666159 73.00000541 -77 74.25 C-77.66 74.86875 -78.32 75.4875 -79 76.125 C-90.33333333 86.75 -101.66666667 97.375 -113 108 C-109.1767372 112.02834203 -105.0935666 115.33775359 -100.625 118.625 C-99.93470703 119.13772461 -99.24441406 119.65044922 -98.53320312 120.17871094 C-96.35920857 121.79094214 -94.18037629 123.39641211 -92 125 C-90.90703613 125.8048584 -90.90703613 125.8048584 -89.79199219 126.62597656 C-85.53438616 129.75943695 -81.26997029 132.88341249 -77 136 C-78.58035337 140.28518895 -81.84303281 142.72995797 -85.25 145.5625 C-85.8682666 146.08408691 -86.4865332 146.60567383 -87.12353516 147.14306641 C-92.60981529 151.74155405 -98.19977023 156.20645317 -103.87109375 160.57421875 C-105.74208216 162.02476033 -107.59556004 163.49903491 -109.41015625 165.01953125 C-112.71556342 167.73900882 -114.42186637 168.91327996 -118.75 169.5625 C-122.29909765 168.9482331 -123.44836443 168.46990946 -126 166 C-127.03394184 163.67196678 -127.84507778 161.51424616 -128.59375 159.09765625 C-128.8221759 158.39987061 -129.05060181 157.70208496 -129.28594971 156.9831543 C-130.03676234 154.68019856 -130.76842128 152.37163052 -131.5 150.0625 C-132.01851837 148.45781886 -132.53839491 146.85357601 -133.05957031 145.24975586 C-133.87260766 142.74636125 -134.68431688 140.24259575 -135.49078369 137.73707581 C-137.42480704 131.73313787 -139.42125287 125.75272611 -141.453125 119.78125 C-142.01114811 118.13536254 -142.56909202 116.48944823 -143.12695312 114.84350586 C-143.93346902 112.46467576 -144.74175741 110.0865412 -145.55639648 107.71047974 C-146.31021791 105.50850454 -147.05453313 103.30352324 -147.796875 101.09765625 C-148.13347137 100.12650879 -148.13347137 100.12650879 -148.47686768 99.13574219 C-150.65544694 92.60456709 -150.65544694 92.60456709 -150 89 C-148.21289062 87.35693359 -148.21289062 87.35693359 -145.65625 85.8984375 C-144.69356201 85.33592285 -143.73087402 84.7734082 -142.73901367 84.19384766 C-141.1357019 83.29351807 -141.1357019 83.29351807 -139.5 82.375 C-137.79267728 81.38422589 -136.08537761 80.39341101 -134.37895203 79.40109253 C-132.53798939 78.33384289 -130.69247678 77.27480798 -128.84619141 76.21679688 C-122.93009195 72.81806215 -117.07348835 69.31865283 -111.2109375 65.82867432 C-109.16915124 64.61408494 -107.12579599 63.40217481 -105.08203125 62.19091797 C-95.78042127 56.6752439 -86.5250239 51.08790784 -77.2918396 45.45855713 C-67.90212619 39.73583536 -58.46281087 34.1009261 -49 28.5 C-38.36114642 22.20234997 -27.75347008 15.8567676 -17.1875 9.4375 C-16.58478271 9.07156738 -15.98206543 8.70563477 -15.36108398 8.32861328 C-1.64971178 0 -1.64971178 0 0 0 Z " fill="#D6E2E9" transform="translate(506,65)"/>
<path d="M0 0 C5.08143418 1.59165545 8.75793534 4.68994145 12.875 7.9375 C14.38051416 9.1080533 15.88704671 10.27729783 17.39453125 11.4453125 C18.15588379 12.03602539 18.91723633 12.62673828 19.70166016 13.23535156 C23.28114397 15.98365292 26.91671047 18.65309859 30.5625 21.3125 C31.21138184 21.7861499 31.86026367 22.2597998 32.52880859 22.74780273 C34.01811951 23.83336028 35.50887926 24.91692977 37 26 C35.41964663 30.28518895 32.15696719 32.72995797 28.75 35.5625 C28.1317334 36.08408691 27.5134668 36.60567383 26.87646484 37.14306641 C20.37706918 42.59072674 13.71068327 47.81674837 7 53 C6.16984375 53.66644531 5.3396875 54.33289063 4.484375 55.01953125 C3.78828125 55.56996094 3.0921875 56.12039062 2.375 56.6875 C1.80523437 57.14511719 1.23546875 57.60273438 0.6484375 58.07421875 C-1 59 -1 59 -5 59 C-4.26360902 48.53458464 -3.49304167 38.07193278 -2.69775391 27.61083984 C-2.56483927 25.8560384 -2.43302065 24.10115363 -2.30224609 22.34619141 C-2.11033213 19.77225842 -1.91491025 17.19861243 -1.71875 14.625 C-1.661427 13.84680908 -1.604104 13.06861816 -1.54504395 12.2668457 C-1.22559177 8.12915779 -0.75573338 4.08679855 0 0 Z " fill="#B5D1DB" transform="translate(392,175)"/>
<path d="M0 0 C0.99 0.99 1.98 1.98 3 3 C2.67 3.99 2.34 4.98 2 6 C-0.06640625 6.94921875 -0.06640625 6.94921875 -2.5625 7.6875 C-3.80193359 8.06455078 -3.80193359 8.06455078 -5.06640625 8.44921875 C-5.70449219 8.63097656 -6.34257813 8.81273437 -7 9 C-7.66 7.35 -8.32 5.7 -9 4 C-6.03 2.68 -3.06 1.36 0 0 Z " fill="#FFFFFF" transform="translate(96,352)"/>
<path d="M0 0 C3.36295835 1.44126786 5.62927102 3.20592655 8 6 C8 6.99 8 7.98 8 9 C6.02 9.99 6.02 9.99 4 11 C2.96468274 10.09972412 1.94705835 9.17906965 0.9375 8.25 C0.36902344 7.73953125 -0.19945312 7.2290625 -0.78515625 6.703125 C-2 5 -2 5 -1.74609375 2.859375 C-1 1 -1 1 0 0 Z " fill="#FFFFFF" transform="translate(140,256)"/>
<path d="M0 0 C0.8353125 0.37125 0.8353125 0.37125 1.6875 0.75 C1.6875 2.07 1.6875 3.39 1.6875 4.75 C0.15625 6.234375 0.15625 6.234375 -1.8125 7.5 C-2.4621875 7.92796875 -3.111875 8.3559375 -3.78125 8.796875 C-4.53921875 9.26867187 -4.53921875 9.26867187 -5.3125 9.75 C-6.3025 9.09 -7.2925 8.43 -8.3125 7.75 C-7.98035849 4.65001254 -7.2579988 3.6954988 -5 1.4375 C-2.3125 -0.25 -2.3125 -0.25 0 0 Z " fill="#FFFFFF" transform="translate(147.3125,321.25)"/>
<path d="M0 0 C1.32 0.66 2.64 1.32 4 2 C2.6062718 6.43458973 0.39417765 8.87378374 -3 12 C-3.99 11.34 -4.98 10.68 -6 10 C-4.6302836 6.00499382 -2.74277578 3.19990508 0 0 Z " fill="#FFFFFF" transform="translate(173,291)"/>
<path d="M0 0 C4.24822374 0.47202486 6.19989709 2.96655518 9 6 C8.34 7.32 7.68 8.64 7 10 C3.56404834 8.47291037 0.88087546 6.40072955 -2 4 C-1.34 2.68 -0.68 1.36 0 0 Z " fill="#FFFFFF" transform="translate(154,270)"/>
<path d="M0 0 C0.99 0.99 1.98 1.98 3 3 C3 3.66 3 4.32 3 5 C-3.33078101 9.01761103 -3.33078101 9.01761103 -6.375 8.9375 C-8 8 -8 8 -9 5 C-6.03 3.35 -3.06 1.7 0 0 Z " fill="#FFFFFF" transform="translate(114,343)"/>
<path d="M0 0 C1.31823302 0.59155331 2.62947051 1.19871463 3.9375 1.8125 C5.03384766 2.31716797 5.03384766 2.31716797 6.15234375 2.83203125 C8 4 8 4 9 7 C8.01 7.99 7.02 8.98 6 10 C3.36 8.35 0.72 6.7 -2 5 C-1 1 -1 1 0 0 Z " fill="#FFFFFF" transform="translate(170,282)"/>
<path d="M0 0 C4.21878192 -0.19622241 7.17010894 0.19769832 11 2 C10.67 3.65 10.34 5.3 10 7 C6.7 6.34 3.4 5.68 0 5 C0 3.35 0 1.7 0 0 Z " fill="#FFFFFF" transform="translate(143,139)"/>
<path d="M0 0 C1.32 0.66 2.64 1.32 4 2 C2.64486335 6.06540996 0.69203082 6.97300269 -3 9 C-5.375 8.75 -5.375 8.75 -7 8 C-6.875 6.25 -6.875 6.25 -6 4 C-2.9375 1.75 -2.9375 1.75 0 0 Z " fill="#FFFFFF" transform="translate(130,333)"/>
<path d="M0 0 C0.33 1.32 0.66 2.64 1 4 C-0.26839526 4.50615298 -1.53983102 5.00469099 -2.8125 5.5 C-3.87404297 5.91765625 -3.87404297 5.91765625 -4.95703125 6.34375 C-7 7 -7 7 -10 7 C-10.33 5.35 -10.66 3.7 -11 2 C-7.17679443 0.57741188 -4.08718695 -0.24042276 0 0 Z " fill="#FFFFFF" transform="translate(311,315)"/>
<path d="M0 0 C3.3 0.99 6.6 1.98 10 3 C9.67 4.65 9.34 6.3 9 8 C7.53984709 7.71758359 6.08190207 7.42373386 4.625 7.125 C3.81289062 6.96257812 3.00078125 6.80015625 2.1640625 6.6328125 C0 6 0 6 -2 4 C-1.34 2.68 -0.68 1.36 0 0 Z " fill="#FFFFFF" transform="translate(223,309)"/>
<path d="M0 0 C3.95820859 0.56545837 6.6659053 1.80902348 10 4 C9.67 5.32 9.34 6.64 9 8 C5.28111761 7.49287967 2.26545761 6.88391785 -1 5 C-0.67 3.35 -0.34 1.7 0 0 Z " fill="#FFFFFF" transform="translate(204,302)"/>
<path d="M0 0 C1.32 0.66 2.64 1.32 4 2 C2.8905928 5.48670834 1.73662334 8.77484237 0 12 C-2.475 11.01 -2.475 11.01 -5 10 C-3.66511872 6.40608886 -2.03977277 3.24509304 0 0 Z " fill="#FFFFFF" transform="translate(183,274)"/>
<path d="M0 0 C1.38671875 1.75 1.38671875 1.75 2.6875 4 C3.34298828 5.11375 3.34298828 5.11375 4.01171875 6.25 C4.33785156 6.8275 4.66398438 7.405 5 8 C3.68 8.99 2.36 9.98 1 11 C-0.00893131 9.90398831 -1.00688225 8.79786082 -2 7.6875 C-2.8353125 6.76517578 -2.8353125 6.76517578 -3.6875 5.82421875 C-5 4 -5 4 -5 1 C-3 0 -3 0 0 0 Z " fill="#FFFFFF" transform="translate(130,241)"/>
<path d="M0 0 C1.65 0 3.3 0 5 0 C4.67 3.63 4.34 7.26 4 11 C2.35 11 0.7 11 -1 11 C-0.67 7.37 -0.34 3.74 0 0 Z " fill="#FFFFFF" transform="translate(194,237)"/>
<path d="M0 0 C0.99 0.33 1.98 0.66 3 1 C3.94921875 3.06640625 3.94921875 3.06640625 4.6875 5.5625 C5.06455078 6.80193359 5.06455078 6.80193359 5.44921875 8.06640625 C5.63097656 8.70449219 5.81273437 9.34257812 6 10 C4.35 10.33 2.7 10.66 1 11 C-0.32 8.03 -1.64 5.06 -3 2 C-2.01 1.34 -1.02 0.68 0 0 Z " fill="#FFFFFF" transform="translate(188,178)"/>
<path d="M0 0 C1.65 0.33 3.3 0.66 5 1 C4.34 4.63 3.68 8.26 3 12 C1.35 11.67 -0.3 11.34 -2 11 C-1.85892253 9.54119891 -1.71197585 8.08296449 -1.5625 6.625 C-1.48128906 5.81289062 -1.40007812 5.00078125 -1.31640625 4.1640625 C-1 2 -1 2 0 0 Z " fill="#FFFFFF" transform="translate(104,166)"/>
<path d="M0 0 C4.04131267 1.34710422 4.90288434 3.38428334 7 7 C7 7.99 7 8.98 7 10 C5.68 10.33 4.36 10.66 3 11 C-2 5.5 -2 5.5 -2 1 C-1.34 0.67 -0.68 0.34 0 0 Z " fill="#FFFFFF" transform="translate(177,161)"/>
<path d="M0 0 C0 1.32 0 2.64 0 4 C-4.95 5.485 -4.95 5.485 -10 7 C-10.33 5.35 -10.66 3.7 -11 2 C-9.73392393 1.46770674 -8.46189588 0.94955456 -7.1875 0.4375 C-6.47980469 0.14746094 -5.77210937 -0.14257812 -5.04296875 -0.44140625 C-3 -1 -3 -1 0 0 Z " fill="#FFFFFF" transform="translate(80,361)"/>
<path d="M0 0 C3.63 0 7.26 0 11 0 C11 1.65 11 3.3 11 5 C7.37 5 3.74 5 0 5 C0 3.35 0 1.7 0 0 Z " fill="#FFFFFF" transform="translate(261,319)"/>
<path d="M0 0 C0.33 1.65 0.66 3.3 1 5 C-0.28913487 5.67154933 -1.58140204 6.33708859 -2.875 7 C-3.59429687 7.37125 -4.31359375 7.7425 -5.0546875 8.125 C-7 9 -7 9 -9 9 C-9.33 7.35 -9.66 5.7 -10 4 C-8.71086513 3.32845067 -7.41859796 2.66291141 -6.125 2 C-5.40570313 1.62875 -4.68640625 1.2575 -3.9453125 0.875 C-2 0 -2 0 0 0 Z " fill="#FFFFFF" transform="translate(329,307)"/>
<path d="M0 0 C1.32 1.32 2.64 2.64 4 4 C1.36 6.31 -1.28 8.62 -4 11 C-4.99 10.01 -5.98 9.02 -7 8 C-5.61918777 3.8575633 -3.40174442 2.67796901 0 0 Z " fill="#FFFFFF" transform="translate(343,295)"/>
<path d="M0 0 C3.95820859 0.56545837 6.6659053 1.80902348 10 4 C9.67 5.65 9.34 7.3 9 9 C5.08788267 7.84414715 2.1254959 6.64465038 -1 4 C-0.67 2.68 -0.34 1.36 0 0 Z " fill="#FFFFFF" transform="translate(186,293)"/>
<path d="M0 0 C1.32 0.66 2.64 1.32 4 2 C2.68775452 5.93673644 1.08089673 8.22719294 -2 11 C-3.32 10.34 -4.64 9.68 -6 9 C-4.47291037 5.56404834 -2.40072955 2.88087546 0 0 Z " fill="#FFFFFF" transform="translate(356,280)"/>
<path d="M0 0 C1.65 0.33 3.3 0.66 5 1 C4.55123384 2.64846769 4.09069512 4.29373455 3.625 5.9375 C3.36976563 6.85402344 3.11453125 7.77054687 2.8515625 8.71484375 C2 11 2 11 0 12 C-0.99 11.34 -1.98 10.68 -3 10 C-2.01 6.7 -1.02 3.4 0 0 Z " fill="#FFFFFF" transform="translate(190,256)"/>
<path d="M0 0 C4 6.625 4 6.625 4 10 C2.68 10.33 1.36 10.66 0 11 C-0.83878455 9.71186658 -1.67086783 8.41936744 -2.5 7.125 C-2.9640625 6.40570313 -3.428125 5.68640625 -3.90625 4.9453125 C-5 3 -5 3 -5 1 C-3 0 -3 0 0 0 Z " fill="#FFFFFF" transform="translate(119,224)"/>
<path d="M0 0 C1.65 0 3.3 0 5 0 C5 3.63 5 7.26 5 11 C3.35 11 1.7 11 0 11 C0 7.37 0 3.74 0 0 Z " fill="#FFFFFF" transform="translate(195,217)"/>
<path d="M0 0 C2.375 0.1875 2.375 0.1875 5 1 C6.86007925 4.27728249 7 6.1659754 7 10 C5.68 10.33 4.36 10.66 3 11 C2.30300448 9.54618103 1.61766134 8.08677047 0.9375 6.625 C0.55464844 5.81289062 0.17179687 5.00078125 -0.22265625 4.1640625 C-0.47917969 3.44992188 -0.73570313 2.73578125 -1 2 C-0.67 1.34 -0.34 0.68 0 0 Z " fill="#FFFFFF" transform="translate(107,206)"/>
<path d="M0 0 C1.19287411 3.87684087 2 6.91621923 2 11 C0.35 11 -1.3 11 -3 11 C-3.66 7.7 -4.32 4.4 -5 1 C-3 0 -3 0 0 0 Z " fill="#FFFFFF" transform="translate(197,197)"/>
<path d="M0 0 C1.32 1.32 2.64 2.64 4 4 C2.35 6.31 0.7 8.62 -1 11 C-2.65 10.67 -4.3 10.34 -6 10 C-4.6302836 6.00499382 -2.74277578 3.19990508 0 0 Z " fill="#FFFFFF" transform="translate(114,148)"/>
<path d="M0 0 C3.3 0.66 6.6 1.32 10 2 C10 3.65 10 5.3 10 7 C6.37 6.34 2.74 5.68 -1 5 C-0.67 3.35 -0.34 1.7 0 0 Z " fill="#FFFFFF" transform="translate(242,315)"/>
<path d="M0 0 C1.32 0.66 2.64 1.32 4 2 C2.4169423 6.2742558 -0.50568404 8.26531794 -4 11 C-4.66 9.35 -5.32 7.7 -6 6 C-4.02 4.02 -2.04 2.04 0 0 Z " fill="#FFFFFF" transform="translate(160,307)"/>
<path d="M0 0 C3.93673644 1.31224548 6.22719294 2.91910327 9 6 C8.34 7.32 7.68 8.64 7 10 C3.18315774 8.44499019 0.80804268 5.96404505 -2 3 C-1.34 2.01 -0.68 1.02 0 0 Z " fill="#FFFFFF" transform="translate(162,147)"/>
<path d="M0 0 C0 1.65 0 3.3 0 5 C-3.3 5.66 -6.6 6.32 -10 7 C-10.33 5.68 -10.66 4.36 -11 3 C-7.14243493 0.84694043 -4.44870215 -0.39253254 0 0 Z " fill="#FFFFFF" transform="translate(134,139)"/>
<path d="M0 0 C2.97 0 5.94 0 9 0 C9.33 1.65 9.66 3.3 10 5 C6.37 5 2.74 5 -1 5 C-0.67 3.35 -0.34 1.7 0 0 Z " fill="#FFFFFF" transform="translate(282,319)"/>
<path d="M0 0 C1.65 0 3.3 0 5 0 C5.33 3.3 5.66 6.6 6 10 C4.68 10.33 3.36 10.66 2 11 C0.57741188 7.17679443 -0.24042276 4.08718695 0 0 Z " fill="#FFFFFF" transform="translate(102,187)"/>
<path d="M0 0 C1.65 0.33 3.3 0.66 5 1 C3.125 6.75 3.125 6.75 2 9 C0.35 8.67 -1.3 8.34 -3 8 C-1.125 2.25 -1.125 2.25 0 0 Z " fill="#FFFFFF" transform="translate(363,265)"/>
<path d="M0 0 C0.66 1.32 1.32 2.64 2 4 C-1.63 4 -5.26 4 -9 4 C-8 2 -8 2 -6.15234375 1.3671875 C-5.05599609 1.12355469 -5.05599609 1.12355469 -3.9375 0.875 C-3.20402344 0.70742188 -2.47054687 0.53984375 -1.71484375 0.3671875 C-1.14894531 0.24601562 -0.58304688 0.12484375 0 0 Z " fill="#FFFFFF" transform="translate(59,366)"/>
</svg>
